<svg id="Capa_1" data-name="Capa 1" xmlns="http://www.w3.org/2000/svg" viewBox="0 0 80.43 80.43"><defs><style>.cls-1{fill:#3585f9;}</style></defs><polygon class="cls-1" points="72.27 23.18 61.1 57.25 66.83 57.25 77.99 23.18 72.27 23.18"/><polygon points="58.67 23.18 56.72 29.11 54.01 37.4 54.03 37.4 51.29 45.72 51.29 45.72 47.86 56.16 44.42 45.72 39.19 29.82 37 23.18 35.51 23.18 31.32 23.18 29.79 23.18 28.18 28.05 25.13 37.4 25.15 37.4 21.95 47.1 21.95 47.11 18.98 56.16 15.99 47.09 9.63 27.79 8.11 23.18 2.44 23.18 13.64 57.25 24.26 57.25 33.41 29.54 42.53 57.25 53.14 57.25 64.4 23.18 58.67 23.18"/></svg>