<svg xmlns="http://www.w3.org/2000/svg" viewBox="0 0 80.43 80.43"><defs><style>.a{fill:#00a9e5;}</style></defs><title>wazuh_blue_iso</title><path class="a" d="M59.79-.28,49.91,20.5H31.8L21-.28l-7.52,26.4L3.12,37.91,26.4,59.27l9.05,20.88H45.8l8.57-20.52L78.12,38.11,67.54,26.49ZM48.2,55.46a2.16,2.16,0,0,1-.89.75,3,3,0,0,1-1.17.24A2.92,2.92,0,0,1,45,56.21a2.17,2.17,0,0,1-.87-.75l-3.49-5.29-3.52,5.29a2.24,2.24,0,0,1-.87.75,3,3,0,0,1-1.15.24,2.34,2.34,0,0,1-2.07-1L15.1,38.76h5L35.2,52l3-4.73H43L46.27,52,61.61,38.19h4.54Z"/></svg>