<svg width="160.4" height="216" xmlns="http://www.w3.org/2000/svg">
 <style type="text/css">.st0{fill:#1A80B6;}</style>

 <g>
  <title>background</title>
  <rect fill="none" id="canvas_background" height="402" width="582" y="-1" x="-1"/>
 </g>
 <g>
  <title>Layer 1</title>
  <path id="svg_1" d="m121.07369,22.22669l-21.06259,44.29749l-38.63047,0l-57.06964,-22.2975l17.94331,34.26919l-22.0543,25.1712l49.58677,45.54898l19.33884,44.55726l22.12516,0l18.27627,-43.77808l50.67295,-45.92684l-22.57378,-24.76967l-16.55252,-57.07203zm-24.69899,118.86651a4.72255,4.72255 0 0 1 -1.91258,1.60573a6.23377,6.23377 0 0 1 -2.50296,0.51939a6.09209,6.09209 0 0 1 -2.3613,-0.51939a4.48642,4.48642 0 0 1 -1.8418,-1.60573l-7.46161,-11.28688l-7.69776,11.28688a4.72255,4.72255 0 0 1 -1.8418,1.60573a6.18654,6.18654 0 0 1 -2.36126,0.51939a4.98229,4.98229 0 0 1 -4.41559,-2.1252l-38.22904,-35.6316l10.57851,0l32.30224,28.3353l6.46988,-10.03544l10.15348,0l7.08386,10.08265l32.72726,-29.51592l9.68122,0l-38.37075,36.76509z" class="st0"/>
  <g stroke="null" id="svg_41">
   <path stroke="null" id="svg_18" fill="#4DBBEB" d="m151.354875,72.001786c1.342383,2.281147 2.052149,4.887739 2.052149,7.533688c0,8.346546 -6.92176,15.137007 -15.429691,15.137007s-15.429691,-6.790461 -15.429691,-15.137007c0,-2.645949 0.709766,-5.252541 2.052149,-7.533688l13.377542,-22.737298l13.377542,22.737298z"/>
   <path stroke="null" id="svg_20" d="m147.235147,78.021774c-0.851719,0 -1.542969,0.678138 -1.542969,1.513701s0.69125,1.513701 1.542969,1.513701s1.542969,-0.678138 1.542969,-1.513701s-0.69125,-1.513701 -1.542969,-1.513701z"/>
   <path stroke="null" id="svg_24" d="m152.69124,71.245238l-13.377542,-22.737449c-0.275574,-0.46849 -0.785063,-0.757002 -1.336366,-0.757002s-1.060791,0.288511 -1.336366,0.757002l-13.377388,22.737298c-1.477702,2.511078 -2.258907,5.377724 -2.258907,8.290387c0,9.1812 7.613936,16.650707 16.972661,16.650707s16.972661,-7.469507 16.972661,-16.650707c0,-2.912663 -0.781051,-5.779309 -2.258753,-8.290236zm-14.713908,21.913542c-7.657139,0 -13.886722,-6.111415 -13.886722,-13.623306c0,-2.381959 0.638172,-4.725319 1.845545,-6.776989l12.041177,-20.46599l12.041331,20.466293c1.207219,2.051519 1.845391,4.394727 1.845391,6.776838c0,7.51174 -6.229584,13.623155 -13.886722,13.623155z"/>
   <path stroke="null" id="svg_25" d="m146.145039,84.067494c-0.661779,-0.52586 -1.633541,-0.426258 -2.170186,0.223422c-1.476313,1.787832 -3.662237,2.813213 -5.997367,2.813213c-0.852028,0 -1.542969,0.677835 -1.542969,1.513701s0.690942,1.513701 1.542969,1.513701c3.270169,0 6.330031,-1.434231 8.395295,-3.934865c0.536336,-0.64968 0.434346,-1.603009 -0.227742,-2.129171z"/>
   <g stroke="null" transform="matrix(0.15429691446823118,0,0,0.15137006777389603,-69.26795005758333,-107.04168183144469) " id="svg_26"/>
   <g stroke="null" transform="matrix(0.15429691446823118,0,0,0.15137006777389603,-69.26795005758333,-107.04168183144469) " id="svg_27"/>
   <g stroke="null" transform="matrix(0.15429691446823118,0,0,0.15137006777389603,-69.26795005758333,-107.04168183144469) " id="svg_28"/>
   <g stroke="null" transform="matrix(0.15429691446823118,0,0,0.15137006777389603,-69.26795005758333,-107.04168183144469) " id="svg_29"/>
   <g stroke="null" transform="matrix(0.15429691446823118,0,0,0.15137006777389603,-69.26795005758333,-107.04168183144469) " id="svg_30"/>
   <g stroke="null" transform="matrix(0.15429691446823118,0,0,0.15137006777389603,-69.26795005758333,-107.04168183144469) " id="svg_31"/>
   <g stroke="null" transform="matrix(0.15429691446823118,0,0,0.15137006777389603,-69.26795005758333,-107.04168183144469) " id="svg_32"/>
   <g stroke="null" transform="matrix(0.15429691446823118,0,0,0.15137006777389603,-69.26795005758333,-107.04168183144469) " id="svg_33"/>
   <g stroke="null" transform="matrix(0.15429691446823118,0,0,0.15137006777389603,-69.26795005758333,-107.04168183144469) " id="svg_34"/>
   <g stroke="null" transform="matrix(0.15429691446823118,0,0,0.15137006777389603,-69.26795005758333,-107.04168183144469) " id="svg_35"/>
   <g stroke="null" transform="matrix(0.15429691446823118,0,0,0.15137006777389603,-69.26795005758333,-107.04168183144469) " id="svg_36"/>
   <g stroke="null" transform="matrix(0.15429691446823118,0,0,0.15137006777389603,-69.26795005758333,-107.04168183144469) " id="svg_37"/>
   <g stroke="null" transform="matrix(0.15429691446823118,0,0,0.15137006777389603,-69.26795005758333,-107.04168183144469) " id="svg_38"/>
   <g stroke="null" transform="matrix(0.15429691446823118,0,0,0.15137006777389603,-69.26795005758333,-107.04168183144469) " id="svg_39"/>
   <g stroke="null" transform="matrix(0.15429691446823118,0,0,0.15137006777389603,-69.26795005758333,-107.04168183144469) " id="svg_40"/>
  </g>
 </g>
</svg>