<?xml version="1.0" encoding="utf-8"?>
<!-- Generator: Adobe Illustrator 25.2.3, SVG Export Plug-In . SVG Version: 6.00 Build 0)  -->
<svg version="1.1" id="Capa_1" xmlns="http://www.w3.org/2000/svg" xmlns:xlink="http://www.w3.org/1999/xlink" x="0px" y="0px"
	 viewBox="0 0 305 72.7" style="enable-background:new 0 0 305 72.7;" xml:space="preserve">
<style type="text/css">
	.st0{fill:#3585F9;}
</style>
<g>
	<polygon points="197.8,15.1 197.8,7.4 158,7.4 158,15.1 186.4,15.1 157.3,56.8 157.3,64.5 198.6,64.5 198.6,56.8 168.7,56.8 	"/>
	<path d="M240.7,42.9c0,9.9-4.7,14.7-12.7,14.7c-7.9,0-12.7-4.8-12.7-14.7V7.4H206v34.4c0,15.8,8.3,23.5,22.1,23.5
		c13.7,0,22-7.7,22-23.5V7.4h-9.3V42.9z"/>
	<polygon points="291.8,7.4 291.8,31.5 267.3,31.5 267.3,7.4 258,7.4 258,64.5 267.3,64.5 267.3,39.2 291.8,39.2 291.8,64.5 
		301.1,64.5 301.1,7.4 	"/>
	<polygon points="98.1,7.4 94.8,17.3 90.3,31.2 90.3,31.2 85.7,45.2 85.7,45.2 80,62.6 74.2,45.2 65.4,18.5 61.8,7.4 59.3,7.4 
		52.3,7.4 49.7,7.4 47,15.5 41.9,31.2 41.9,31.2 36.6,47.5 36.6,47.5 31.6,62.6 26.6,47.5 15.9,15.1 13.4,7.4 3.8,7.4 22.6,64.5 
		40.4,64.5 55.8,18 71,64.5 88.8,64.5 107.7,7.4 	"/>
	<polygon points="117.1,7.4 98.3,64.5 107.9,64.5 113.2,48.4 115.7,40.6 126,9.2 125.5,7.4 	"/>
	<polygon class="st0" points="134.9,7.4 125.5,7.4 125.5,7.4 126,9.2 126,9.2 126,9.2 136.3,40.6 138.9,48.4 144.2,64.5 153.7,64.5 
			"/>
	<circle class="st0" cx="126.1" cy="44.3" r="5.7"/>
</g>
</svg>
