<svg xmlns="http://www.w3.org/2000/svg" viewBox="0 0 368.15 72.67"><defs><style>.a{fill:#00a9e5;}</style></defs><title>wazuh_blue_full copia</title><path class="a" d="M143.93,16,124.3,53l-6.62-13.29h-9.63L100.76,53,81.26,16H71.18L96.12,62.19a4.92,4.92,0,0,0,6.83,2,5,5,0,0,0,1.85-2l7.5-14.12,7.42,14.12a5.13,5.13,0,0,0,1.86,2,4.68,4.68,0,0,0,2.46.66,4.83,4.83,0,0,0,2.48-.66,5,5,0,0,0,1.9-2L153.34,16Z"/><path class="a" d="M174.47,16a3.83,3.83,0,0,0-2.36-.73,4,4,0,0,0-2.38.73A6.25,6.25,0,0,0,168,18L140.28,64.18h9.62l7.38-12.48h28.91l7.62,12.48H204L176.16,18A6.57,6.57,0,0,0,174.47,16Zm-13.36,29.2,10.68-18.06,10.74,18Z"/><path class="a" d="M253.48,20.23A3.76,3.76,0,0,0,252,17,5.37,5.37,0,0,0,248.74,16H207v8H239.8l-31.74,32a5,5,0,0,0-1.71,3.54,3.77,3.77,0,0,0,1.42,3.19,5.28,5.28,0,0,0,3.31,1.08h42.2V55.79H220l31.74-32A5,5,0,0,0,253.48,20.23Z"/><path class="a" d="M305.42,42.89a19.11,19.11,0,0,1-.91,6.24,9.25,9.25,0,0,1-2.91,4.24,13,13,0,0,1-5.4,2.42,45.77,45.77,0,0,1-16.72,0,13,13,0,0,1-5.4-2.42,9.27,9.27,0,0,1-2.92-4.24,19.15,19.15,0,0,1-.89-6.24V16h-8.7V42.89A29,29,0,0,0,263,52.6a15.92,15.92,0,0,0,4.57,6.87,19.74,19.74,0,0,0,8.06,4,46.12,46.12,0,0,0,11.9,1.33,46.56,46.56,0,0,0,12-1.33,19.82,19.82,0,0,0,8.05-4,16,16,0,0,0,4.58-6.87,29.26,29.26,0,0,0,1.46-9.71V16h-8.22Z"/><polygon class="a" points="360.06 15.97 360.06 35.92 329.69 35.92 329.69 15.97 321.26 15.97 321.26 64.38 329.69 64.38 329.69 43.42 360.06 43.42 360.06 64.38 368.48 64.38 368.48 15.97 360.06 15.97"/><path class="a" d="M51.53,0,42.61,18.76H26.25L16.48,0,9.68,23.83.34,34.49l21,19.29,8.19,18.87H38.9l7.74-18.54L68.1,34.66,58.54,24.17ZM41.07,50.34a2,2,0,0,1-.81.68,2.64,2.64,0,0,1-1.06.22,2.58,2.58,0,0,1-1-.22,1.9,1.9,0,0,1-.78-.68l-3.16-4.78L31,50.34a2,2,0,0,1-.78.68,2.62,2.62,0,0,1-1,.22,2.11,2.11,0,0,1-1.87-.9L11.16,35.25h4.48l13.68,12L32.06,43h4.3l3,4.27,13.86-12.5h4.1Z"/></svg>