<svg height="485pt" viewBox="-2 0 485 485.6" width="485pt" xmlns="http://www.w3.org/2000/svg"><path d="m384.300781 240c0 79.527344-64.472656 144-144 144-79.53125 0-144-64.472656-144-144s64.46875-144 144-144c79.527344 0 144 64.472656 144 144zm0 0" fill="#0a51a5"/><path d="m192.300781 216h96c8.800781 0 16 7.199219 16 16v80c0 8.800781-7.199219 16-16 16h-96c-8.800781 0-16-7.199219-16-16v-80c0-8.800781 7.199219-16 16-16zm0 0" fill="#e8c325"/><path d="m256.300781 264c0 8.835938-7.164062 16-16 16-8.835937 0-16-7.164062-16-16s7.164063-16 16-16c8.835938 0 16 7.164062 16 16zm0 0" fill="#0a51a5"/><path d="m232.300781 272h16v32h-16zm0 0" fill="#0a51a5"/><g fill="#e8c325"><path d="m216.300781 16h48v16h-48zm0 0"/><path d="m229.898438 53.601562-11.199219-11.203124 13.601562-13.597657v-28.800781h16v35.199219zm0 0"/><path d="m234.722656 37.738281 11.3125-11.3125 15.839844 15.839844-11.316406 11.3125zm0 0"/><path d="m320.300781 48h48v16h-48zm0 0"/><path d="m333.898438 85.601562-11.199219-11.203124 13.601562-13.597657v-28.800781h16v35.199219zm0 0"/><path d="m338.71875 69.738281 11.316406-11.3125 15.839844 15.839844-11.316406 11.3125zm0 0"/><path d="m400.300781 128h48v16h-48zm0 0"/><path d="m413.898438 165.601562-11.199219-11.203124 13.601562-13.597657v-28.800781h16v35.199219zm0 0"/><path d="m418.71875 149.738281 11.316406-11.3125 15.835938 15.839844-11.3125 11.3125zm0 0"/><path d="m432.300781 232h48v16h-48zm0 0"/><path d="m445.898438 269.601562-11.199219-11.203124 13.601562-13.597657v-28.800781h16v35.199219zm0 0"/><path d="m450.71875 253.738281 11.3125-11.3125 15.839844 15.839844-11.3125 11.3125zm0 0"/><path d="m216.300781 448h48v16h-48zm0 0"/><path d="m229.898438 485.601562-11.199219-11.203124 13.601562-13.597657v-28.800781h16v35.199219zm0 0"/><path d="m234.71875 469.734375 11.3125-11.3125 15.839844 15.839844-11.3125 11.3125zm0 0"/><path d="m400.300781 336h48v16h-48zm0 0"/><path d="m413.898438 373.601562-11.199219-11.203124 13.601562-13.597657v-28.800781h16v35.199219zm0 0"/><path d="m418.71875 357.738281 11.3125-11.3125 15.839844 15.835938-11.3125 11.316406zm0 0"/><path d="m328.300781 416h48v16h-48zm0 0"/><path d="m341.898438 453.601562-11.199219-11.203124 13.601562-13.597657v-28.800781h16v35.199219zm0 0"/><path d="m346.71875 437.738281 11.3125-11.316406 15.839844 15.839844-11.3125 11.3125zm0 0"/><path d="m112.300781 48h48v16h-48zm0 0"/><path d="m146.699219 85.601562-18.398438-18.402343v-35.199219h16v28.800781l13.597657 13.597657zm0 0"/><path d="m114.722656 74.261719 15.839844-15.835938 11.3125 11.3125-15.839844 15.839844zm0 0"/><path d="m32.300781 128h48v16h-48zm0 0"/><path d="m66.699219 165.601562-18.398438-18.402343v-35.199219h16v28.800781l13.597657 13.597657zm0 0"/><path d="m34.722656 154.261719 15.839844-15.839844 11.3125 11.316406-15.839844 15.835938zm0 0"/><path d="m.300781 232h48v16h-48zm0 0"/><path d="m34.699219 269.601562-18.398438-18.402343v-35.199219h16v28.800781l13.597657 13.597657zm0 0"/><path d="m2.722656 258.261719 15.835938-15.839844 11.316406 11.3125-15.839844 15.839844zm0 0"/><path d="m32.300781 336h48v16h-48zm0 0"/><path d="m66.699219 373.601562-18.398438-18.402343v-35.199219h16v28.800781l13.597657 13.597657zm0 0"/><path d="m34.71875 362.261719 15.839844-15.839844 11.316406 11.3125-15.839844 15.839844zm0 0"/><path d="m104.300781 416h48v16h-48zm0 0"/><path d="m138.699219 453.601562-18.398438-18.402343v-35.199219h16v28.800781l13.597657 13.597657zm0 0"/><path d="m106.71875 442.261719 15.839844-15.839844 11.3125 11.3125-15.835938 15.839844zm0 0"/></g><path d="m288.300781 216h-16v-40c0-17.601562-14.402343-32-32-32-17.601562 0-32 14.398438-32 32v40h-16v-40c0-26.398438 21.597657-48 48-48 26.398438 0 48 21.601562 48 48zm0 0" fill="#c6a414"/></svg>