<svg style="fill: #343741" xmlns="http://www.w3.org/2000/svg" viewBox="0 0 150 150"><title>ico_openscap</title><path d="M1,75.13A74.15,74.15,0,0,1,77.15,1,74.9,74.9,0,0,1,127.09,22.5a74,74,0,0,1,0,105c-28.77,28.77-75.72,28.64-104.65-.3a9.42,9.42,0,0,1,.35-13.62L42.51,93.92C38.05,86,31.74,65.27,48.24,48.76a37.48,37.48,0,1,1,52.92,53.06A37,37,0,0,1,66,111.39a6.09,6.09,0,1,1,2.87-11.84c8.88,2.15,17.52-.17,23.69-6.34a26,26,0,0,0,7.92-18.36v-.17a25.35,25.35,0,0,0-43.6-17.3c-13.76,13.75-3.59,30.82-3.48,31a10.4,10.4,0,0,1-1.9,13.82L33.13,120.53C54.65,140,92.46,145,118.53,118.89a61.43,61.43,0,0,0,18.25-43.7v-.56a61.84,61.84,0,0,0-60-61.41A61,61,0,0,0,31.18,31.54c-19,19-19,41.43-17.27,53.11a60.43,60.43,0,0,0,4.73,15.82,6.09,6.09,0,1,1-11.11,5A72,72,0,0,1,1.85,86.41,79.91,79.91,0,0,1,1,75.13Z"/></svg>