<svg style="fill: #343741" xmlns="http://www.w3.org/2000/svg" viewBox="0 0 150 150"><title>ico_pci</title><path d="M40.55,64.66H38.74V75.12h1.67a10.56,10.56,0,0,0,5.71-1.29,4.59,4.59,0,0,0,2-4.07C48.08,66.36,45.56,64.66,40.55,64.66Z"/><path d="M121.27,26.19,1,33l33.44,90.85L149,87.79ZM60.81,75.67a12.81,12.81,0,0,1-4.3,4.4,21,21,0,0,1-6.67,2.63,39.26,39.26,0,0,1-8.67.88H38.83V95.29H24V56.23H41.43c6.53,0,11.66,1.12,15.37,3.31a10.93,10.93,0,0,1,5.57,10A11.48,11.48,0,0,1,60.81,75.67ZM99.17,95.23a41.53,41.53,0,0,1-7.79.65,39.65,39.65,0,0,1-11-1.41,24.29,24.29,0,0,1-8.19-4A16.94,16.94,0,0,1,67,84.13a19.3,19.3,0,0,1-1.75-8.31,18,18,0,0,1,1.87-8.26,18.7,18.7,0,0,1,5.27-6.38,24.85,24.85,0,0,1,8.11-4.1,35.19,35.19,0,0,1,10.33-1.43,39.9,39.9,0,0,1,7.94.58,25,25,0,0,1,4.3,1.26l0,10.48a25.39,25.39,0,0,0-5-2.08,20.14,20.14,0,0,0-5.88-.82A12,12,0,0,0,84,67.86q-3.16,2.76-3.16,7.93a10,10,0,0,0,1,4.66,9.62,9.62,0,0,0,2.66,3.33,11.34,11.34,0,0,0,3.92,2,16.13,16.13,0,0,0,4.86.68,24.1,24.1,0,0,0,5.24-.56A44.93,44.93,0,0,0,104,84.25L104,94A41.43,41.43,0,0,1,99.17,95.23Zm12-57.47a10.39,10.39,0,0,1,12.94,0A7.82,7.82,0,0,1,126.69,44a7.72,7.72,0,0,1-2.61,6.18,10.39,10.39,0,0,1-12.94,0,7.69,7.69,0,0,1-2.6-6.18A7.84,7.84,0,0,1,111.14,37.76Zm13.94,57.5h-15v-39h15Z"/></svg>