<svg style="fill: #343741" xmlns="http://www.w3.org/2000/svg" viewBox="0 0 150 150"><title>ico_cis</title><path d="M121.84,74.67c-2.19-1.55-4.53-2.87-6.8-4.29a16.65,16.65,0,0,1-3.68-2.78,5.85,5.85,0,0,1-1.19-6c.63-2,2.25-3,4.24-3.42a12.7,12.7,0,0,1,5.21,0,5.88,5.88,0,0,1,4.76,3.71,9.55,9.55,0,0,1,.34,1.3c.11.57.56.32.88.35s.48-.22.47-.61c0-2.12-.1-4.23-.06-6.34,0-.68-.23-.82-.81-.89a51,51,0,0,0-7.41-.48c-1.06,0-2.12-.07-3.17,0-3.26.25-6.37,1-8.88,3.24-4.71,4.23-4.37,11.83.68,16.26a67.79,67.79,0,0,0,7.52,5.18,17.91,17.91,0,0,1,3.56,2.75A6.37,6.37,0,0,1,115,92.87a11,11,0,0,1-4.93.49c-3.54-.41-6.31-1.86-7.17-5.66-.14-.61-.48-.53-.88-.53-.62,0-.45.45-.44.77,0,2.12.13,4.23.13,6.34,0,.7.33.88.91,1a34.12,34.12,0,0,0,14.64.41c4.68-1,8.33-3.39,9.37-8.4S126.27,77.82,121.84,74.67Z"/><path d="M72.62,55.7c-4.73-.51-9.47-1-14.22-.21-7.11,1.13-12.61,4.67-15.83,11.22-2.52,5.13-2.69,10.57-1.37,16.06A15.8,15.8,0,0,0,50.77,94a28.35,28.35,0,0,0,11.66,2.1,44.88,44.88,0,0,0,8.95-.94c1-.21,1.4-.59,1.36-1.68-.07-1.78.09-3.57.11-5.36,0-.35.4-.93-.43-1-.67,0-.81.26-.87.85a5.15,5.15,0,0,1-3.83,4.55,14,14,0,0,1-5.3.54c-5.93-.2-10-3.25-11.63-9A31.47,31.47,0,0,1,51,66.23c1.2-3.94,3.71-6.73,7.86-7.73A17.36,17.36,0,0,1,66,58.27c2.88.51,5.48,1.47,6,4.94.07.51.47.31.76.35.49.06.48-.25.48-.61,0-2.2,0-4.39,0-6.59C73.25,55.88,73.07,55.75,72.62,55.7Z"/><path d="M92,60.27a3.72,3.72,0,0,1,3.22-3.6c.51-.1.69-.34.64-.83s-.52-.37-.84-.37H80.11c-.31,0-.77-.25-.81.39,0,.46.09.69.62.83,2.38.62,2.9,1.25,3.16,3.66a20.09,20.09,0,0,1,.12,2.19q0,11.34,0,22.69a47.55,47.55,0,0,1-.16,5.6c-.26,2.24-1.1,3.28-3.28,3.83-.44.12-.72.18-.68.74s.45.49.78.47q7.5-.32,15,0c.33,0,.76.13.8-.46s-.11-.67-.56-.75c-2.76-.51-3.28-2.2-3.29-4.51q-.07-13.66,0-27.33A24.3,24.3,0,0,1,92,60.27Z"/><path d="M133.3,88.63A4.13,4.13,0,0,0,129,92.72a4.19,4.19,0,0,0,4.14,4.22,4.16,4.16,0,0,0,.12-8.31Zm1,7a6.64,6.64,0,0,1-.38-1.34c-.17-.78-.47-1.07-1.13-1.1h-.68v2.44h-.73V90.07a7.23,7.23,0,0,1,1.4-.12,2.32,2.32,0,0,1,1.63.46,1.42,1.42,0,0,1,.44,1.07,1.48,1.48,0,0,1-1.06,1.43v0a1.39,1.39,0,0,1,.82,1.13,9.13,9.13,0,0,0,.44,1.55Z"/><path d="M132.81,90.51a2.67,2.67,0,0,0-.72.07v2h.74c.78,0,1.27-.42,1.27-1.07S133.58,90.52,132.81,90.51Z"/><path d="M86.65,149A74,74,0,0,1,34.32,22.67,73.55,73.55,0,0,1,86.65,1c1.9,0,3.82.07,5.71.22a1.83,1.83,0,0,1-.28,3.65c-1.8-.14-3.62-.21-5.43-.21A70.34,70.34,0,0,0,36.91,124.74a69.91,69.91,0,0,0,49.74,20.6c1.75,0,3.51-.07,5.25-.2a1.83,1.83,0,0,1,.27,3.66C90.34,148.93,88.49,149,86.65,149Z"/><path d="M27.16,85.28a1.83,1.83,0,0,1-1.81-1.58A61.91,61.91,0,0,1,133.11,34.08a1.83,1.83,0,1,1-2.75,2.42A58.27,58.27,0,0,0,29,83.19a1.83,1.83,0,0,1-1.56,2.07Z"/></svg>