<svg style="fill: #343741" xmlns="http://www.w3.org/2000/svg" viewBox="0 0 150 150"><title>ico_hipaa</title><path d="M64.71,51.33c4.79-1.08,7.62-4.17,9-8.78.56-1.95,1.09-3.91,1.68-5.86,2.23-7.38,7-9.86,15-8.19,4.18.87,7.62,3.29,10.88,5.87a65.51,65.51,0,0,0,27.32,12.69,27.36,27.36,0,0,0,8.48.59,12.81,12.81,0,0,1-6.89,3.6c-4,.71-7.74-.49-11.46-1.65a58.64,58.64,0,0,1-17.77-9.17,43.49,43.49,0,0,0-8.77-5.13c-5.86-2.53-10.45-1-13.49,4.63-.91,1.67-1.65,3.44-2.44,5.17-2.41,5.25-6.76,7.57-12.25,8.19C64,52.55,63.19,51.5,64.71,51.33Z"/><path d="M64.71,51.33c-1.07.34-.67,1.25-.74,2a6.89,6.89,0,0,0-.1.76c-.06,1.63-.06,1.63,1.61,1.61-1.63.42-1.76.33-1.77-1.2,0-.38,0-.75,0-1.12-.06-.77.45-1.77-.82-2.06,1,0,.8-.64.8-1.22q0-5.91,0-11.82a2.08,2.08,0,0,1-.39-1.56c0-4.19,0-8.38,0-12.56,0-.89.43-1.73.19-2.62.5-3,.11-5.94.24-8.91a24.82,24.82,0,0,1,.12,5.31,14.26,14.26,0,0,0,.87,5.34c.57,1.55,1.09,3.12,1.52,4.72a1.55,1.55,0,0,0,1.84,1.38,56.13,56.13,0,0,1,7.53.21c-2,1.48-4,3-6.13,4.41a1.45,1.45,0,0,0-.64,2c.85,2.38,1.59,4.8,2.5,7.58l-7.46-5.38v3.52c0,2.88,0,5.77,0,8.65C63.85,51,63.9,51.45,64.71,51.33Z"/><path d="M84.19,97.26H78.88c1.31-.33,1.37-1.37,1.37-2.38,0-4.11,0-8.23,0-12.35,0-1.24-.82-1.48-1.69-1.87h5c-1.43.34-1.37,1.41-1.35,2.5s0,2.29-.06,3.43c0,.7.2,1,.93,1q3.89,0,7.77,0c.66,0,.9-.21.88-.88,0-1.18,0-2.38,0-3.56s-.16-2.24-1.7-2.41h5c-1.51.27-1.38,1.44-1.38,2.53,0,3.7,0,7.39,0,11.08,0,2.2.07,2.2,2.23,2.92H90.39c1.54-.39,1.34-1.64,1.36-2.77,0-1.7,0-3.4,0-5.09,0-.74-.24-.94-1-.93-2.55,0-5.09,0-7.64,0-.79,0-1,.25-1,1,.06,1.65.06,3.31.08,5C82.3,96.57,82.3,96.57,84.19,97.26Z"/><path d="M110.7,97.29h-5.28c1.67-.49,1.37-1.87,1.38-3.05,0-3.61,0-7.22,0-10.83,0-1.24.22-2.63-1.85-2.66,2.85.07,5.57-.58,8.25.21a3.43,3.43,0,0,1,2.55,2.89,4.85,4.85,0,0,1-1.59,4.59,5.48,5.48,0,0,1-4.46,1.29c.28-.56.76-.39,1.11-.44,2.33-.36,3.52-2.12,3.11-4.66a3.94,3.94,0,0,0-4.54-3.3c-.49.09-.62.33-.62.77q0,6.75,0,13.49c0,1.27,1,1.39,2,1.34Z"/><path d="M61.61,137.41l.83-.18c.78-1.26.22-2.37-.45-3.42s-1.51-1.94-2.15-3c-1.1-1.81-1.06-3.05.36-4.62,1.08-1.21,2.42-2.19,3.57-3.34a.83.83,0,0,1,.46.73c-.62.25-.34.8-.35,1.21,0,3.58,0,7.16,0,10.74C63.87,137.79,63.86,137.8,61.61,137.41Z"/><path d="M97.87,80.65h4.72c-1.37.32-1.34,1.44-1.34,2.4,0,4.15-.15,8.3.1,12.45.08,1.32.91,1.5,2.1,1.41l-.23.35H98c1.2-.32,1.22-1.26,1.27-2.19.24-4.1.06-8.21.09-12.32A1.86,1.86,0,0,0,97.87,80.65Z"/><path d="M63.76,79.54c-.53-1.92-2-2.84-3.71-3.54a51.17,51.17,0,0,1-8.94-4.78,11.58,11.58,0,0,1-2.84-2.52,4.16,4.16,0,0,1-.3-4.76c.75-1.14,2.31-1.57,4.14-1.14a5.35,5.35,0,0,1,3.58,2.81,12.2,12.2,0,0,0,2,3,3.48,3.48,0,0,0,4.91,0A3.1,3.1,0,0,0,63.52,66c.42-2.05.07-4.12.2-6.18,0-.49-.17-1,.23-1.46a2.23,2.23,0,0,1,.42,1.66,54.55,54.55,0,0,1-.15,5.72l0,1.63a66.55,66.55,0,0,1,.18,6.92,33.7,33.7,0,0,1-.18,4.38Z"/><path d="M63.77,100.18a7.76,7.76,0,0,0-3.22-3.32,18.89,18.89,0,0,1-4.33-3.32c-1.92-2.13-1.84-4.11.19-6.14a11.32,11.32,0,0,1,3.4-2.19,6.51,6.51,0,0,0,4-3.87l.43.82c.36,4.39.1,8.78.17,13.16a23.56,23.56,0,0,1-.18,4.28A.75.75,0,0,1,63.77,100.18Z"/><path d="M63.78,122.6c.17-2-.88-3.37-2.21-4.62-1.11-1-2.31-2-3.36-3.09C56,112.6,56,110.63,58,108.18a21.51,21.51,0,0,1,3.85-3.47A4.86,4.86,0,0,0,63.76,102a1.53,1.53,0,0,1,.46,1q.39,8.67,0,17.34Z"/><path d="M122.36,53.6a52.14,52.14,0,0,1-10.83-4.37c-5.44-2.76-11.15-5-16.17-8.56a18.49,18.49,0,0,0-4-2.45C86.64,36.4,82.84,37,80.46,41.69c-1.12,2.19-2.23,4.38-3.27,6.61a11.76,11.76,0,0,1-7.87,6.52c-1.26.36-2.56.57-3.84.84-1.62.13-1.62.13-1.65-1.47a1.39,1.39,0,0,0-.1-.85c-3.82-.57-7.32-1.82-10-4.76a18.93,18.93,0,0,1-3-5.14,30.72,30.72,0,0,0-2.88-5.51,9.4,9.4,0,0,0-10-3.54A34.66,34.66,0,0,0,27.2,40,62,62,0,0,1,6.84,50.16a1.67,1.67,0,0,0-1.16,1.2A60.63,60.63,0,0,0,2.19,86.55c4.18,20.69,15.94,35.71,34.89,45a57.21,57.21,0,0,0,24.53,5.86c.32.12.64.23.89-.13,0,0,0,0,0-.05h-.05c-1.17-1.78-3.11-2.74-4.46-4.34-3.06-3.62-2.78-6.72.93-9.67,1.18-1,1.21-1.84,0-3a33,33,0,0,1-4.09-4.18c-2.85-3.68-2.86-6.13-.06-9.87a20,20,0,0,1,3.36-3.46c1.51-1.25,1.54-1.69,0-2.93s-3-2.36-4.54-3.49c-4.7-3.49-3.38-8-.77-11a14,14,0,0,1,4.95-3.5c.51-.24,1.08-.46,1.07-1.13s-.57-.8-1-1a67.85,67.85,0,0,1-10.91-6.26c-3.56-2.69-4.83-6.33-4.3-10.64A5.86,5.86,0,0,1,46.14,58c5.44-2.49,10.92-.26,12.88,3.44a4.42,4.42,0,0,0,2.13,1.93A4.49,4.49,0,0,1,63.52,66v0a.59.59,0,0,0,.26-.08,2,2,0,0,0,.14-.39,1,1,0,0,1-.06-.38q0-3.41.08-6.81h7.31A12.85,12.85,0,0,0,68.08,62a4.11,4.11,0,0,1-1.58,1.24,4,4,0,0,0-2.28,2.56.39.39,0,0,1-.24-.12v0a4.48,4.48,0,0,0-.09,1.71l.06.19a.44.44,0,0,1,.24-.19c.52,2.46,4.12,3.28,6,1.12a19.3,19.3,0,0,0,2-3.22,5,5,0,0,1,3.53-2.47c1.42-.27,2.81-.22,3.79,1.1a3.84,3.84,0,0,1,0,4.31,9.29,9.29,0,0,1-2.51,2.49A48.45,48.45,0,0,1,67.49,76a8.35,8.35,0,0,0-2.29,1.34,2.41,2.41,0,0,0-1,1.41.36.36,0,0,1-.25-.19l0,.09c0,.1-.07.2-.11.3a2,2,0,0,1,0,.64c0,.6,0,1.2,0,1.8a3.05,3.05,0,0,1,0,.53,2.74,2.74,0,0,1,.15.4l0,.09a.56.56,0,0,1,.26-.2c.59,1.68,2,2.39,3.5,3.09a11.64,11.64,0,0,1,3.76,2.51,3.71,3.71,0,0,1,.18,5.35A19.43,19.43,0,0,1,66.79,97a5.53,5.53,0,0,0-2.6,2.65.57.57,0,0,1-.25-.19l0,.06a2.11,2.11,0,0,1-.16.34c0,.11,0,.24,0,.37V102a1.58,1.58,0,0,1,0,.64c.06.15.12.3.17.46s0,0,0,0a.69.69,0,0,1,.24-.14,3.54,3.54,0,0,0,1.53,1.79,21.19,21.19,0,0,1,4.53,4.39,3.7,3.7,0,0,1,0,4.59,19.09,19.09,0,0,1-3.29,3.31,8.2,8.2,0,0,0-2.72,3.26.65.65,0,0,1-.25-.13l0,.09a3,3,0,0,0-.16.48,4.74,4.74,0,0,1,0,1.84v.27l-.09.17a1.64,1.64,0,0,0,.55.56c.51,1.16,1.71,1.61,2.53,2.45,1.69,1.73,1.83,2.86.49,4.82-.58.84-1.21,1.64-1.83,2.45a6,6,0,0,0-1.15,2.93c0,.4-.12.91.39,1.09s.73-.15,1-.47a14.54,14.54,0,0,1,2.78-2.59,11.23,11.23,0,0,0,2.52-3,5.78,5.78,0,0,0-1.77-7.86c-1.58-1.16-1.64-1.77-.27-3.11.43-.42.88-.8,1.31-1.22a20.83,20.83,0,0,0,4-4.9,5.94,5.94,0,0,0,.06-6,18.14,18.14,0,0,0-4.54-5.43c-1.66-1.43-1.67-1.67,0-3a62.16,62.16,0,0,0,5.75-4.62,5.74,5.74,0,0,0,1.61-5.48A9.91,9.91,0,0,0,73,83.47a18.13,18.13,0,0,0-3.08-1.78c-.43-.21-.92-.4-1-.92s.52-.82,1-1c1.09-.57,2.2-1.11,3.29-1.67a55.69,55.69,0,0,0,7.53-4.5,10.73,10.73,0,0,0,4.42-7.43c.41-2.91,0-5.55-2.59-7.8h5.6c-.72-.79-1.37-1.41-1.92-2.11-.42-.53-.82-1.17-.21-1.82A1.53,1.53,0,0,1,88,54c1.1.55,2.22,1,3.33,1.58a27.61,27.61,0,0,0,9,2.78c-1.56-1.92-3.55-3.12-5.07-5.21,5.2,1.7,9.91,4,15.48,3.61a2.63,2.63,0,0,0-1.26-.94,14,14,0,0,1-4.12-3.16c-.23-.28-.61-.63-.34-1s.63,0,.93.11a60.28,60.28,0,0,0,8.36,2.14,21.79,21.79,0,0,0,8.4.09A.39.39,0,0,0,122.36,53.6Z"/><path d="M63.64,38.27A63.64,63.64,0,0,0,58.3,42c-.52.35-1,.73-1.83,1.3.83-2.57,1.48-4.87,2.33-7.09A1.75,1.75,0,0,0,58,33.73c-2-1.32-3.86-2.76-6.1-4.38H58.2c2.83,0,2.84,0,3.67-2.65.54-1.73,1.07-3.47,1.61-5.2a.42.42,0,0,1,.26.35,2.9,2.9,0,0,0,0-.66,82.24,82.24,0,0,0-.05-8.6A3.27,3.27,0,0,0,62,12.44a56.22,56.22,0,0,0-8.48.81C34.57,16.64,20.11,26.57,10,42.85c-.18.29-.47.56-.41,1,.56.13.95-.19,1.38-.35,6-2.19,11.2-5.78,16.26-9.6C30,31.73,33,29.7,36.51,28.77c7.91-2.08,13.58.19,15.84,8.38.65,2.32,1.22,4.69,2.08,6.93,1.5,3.89,4.18,6.53,8.48,7.2,1,.37.93-.3.93-.93,0-3.9,0-7.81,0-11.72A1.49,1.49,0,0,0,63.64,38.27Z"/><path d="M145.61,93.87c-1.86-4.14-3.66-8.3-5.5-12.44-.17-.39-.18-1.08-.75-1s-.53.7-.7,1.1c-1.65,3.9-3.27,7.82-4.91,11.73-.37.9-.77,1.79-1.21,2.66s-1,.91-1.5.1a18.89,18.89,0,0,1-1.29-2.33c-1.81-4.07-3.59-8.14-5.4-12.21-.17-.4-.2-1.07-.75-1s-.55.7-.72,1.1c-1.72,4.06-3.4,8.13-5.11,12.2-.65,1.56-1,3.4-3.25,3.51h5.19c-1.46-.17-1.34-1-1-2,.45-1.18.94-2.36,1.35-3.56a1.15,1.15,0,0,1,1.32-.87c1.23.06,2.47.06,3.7,0a1.21,1.21,0,0,1,1.42.92c.56,1.79,1.81,3.33,2,5.28,0,.31.3.3.47.3,2.17,0,4.34,0,6.52,0l.08-.31c-.91,0-1.54-.32-1.19-1.31.57-1.6.81-3.5,2-4.62.86-.83,2.6-.17,3.95-.25.34,0,.68,0,1,0a.69.69,0,0,1,.8.47c.61,1.91,2,3.53,2,5.63,0,.25.13.32.24.33H149C146.9,97,146.29,95.37,145.61,93.87ZM125.07,90c-1.38,0-2.76,0-4.28,0,.79-2.14,1.54-4.14,2.4-6.47.86,2.12,1.59,4,2.34,5.79C125.72,89.78,125.64,90,125.07,90Zm11.5-.06L139,83.52c.92,2.28,1.71,4.26,2.59,6.42Z"/></svg>