<svg style="fill: #343741" xmlns="http://www.w3.org/2000/svg" viewBox="0 0 150 150"><title>ico_gpdr</title><polygon points="68.42 13.92 71.83 17.34 74.98 14.18 78.13 17.33 81.58 13.88 78.45 10.75 82.31 10.75 82.31 5.88 77.44 5.88 77.44 1 72.56 1 72.56 5.88 67.69 5.88 67.69 10.75 71.59 10.75 68.42 13.92"/><polygon points="100.11 23.68 103.53 27.09 106.68 23.94 109.82 27.08 113.27 23.63 110.14 20.51 114.01 20.51 114.01 15.63 109.14 15.63 109.14 10.75 104.26 10.75 104.26 15.63 99.38 15.63 99.38 20.51 103.28 20.51 100.11 23.68"/><polygon points="124.5 48.06 127.91 51.47 131.06 48.32 134.21 51.46 137.65 48.02 134.53 44.89 138.39 44.89 138.39 40.01 133.52 40.01 133.52 35.13 128.64 35.13 128.64 40.01 123.76 40.01 123.76 44.89 127.67 44.89 124.5 48.06"/><polygon points="148.15 71.71 143.27 71.71 143.27 66.83 138.39 66.83 138.39 71.71 133.52 71.71 133.52 76.58 137.42 76.58 134.25 79.75 137.66 83.17 140.81 80.02 143.96 83.16 147.41 79.71 144.28 76.58 148.15 76.58 148.15 71.71"/><polygon points="77.44 132.66 72.56 132.66 72.56 137.54 67.69 137.54 67.69 142.42 71.59 142.42 68.42 145.59 71.83 149 74.98 145.85 78.13 148.99 81.57 145.54 78.45 142.42 82.31 142.42 82.31 137.54 77.44 137.54 77.44 132.66"/><polygon points="133.52 98.53 128.64 98.53 128.64 103.41 123.76 103.41 123.76 108.28 127.67 108.28 124.5 111.45 127.91 114.86 131.06 111.71 134.21 114.86 137.65 111.41 134.53 108.28 138.39 108.28 138.39 103.41 133.52 103.41 133.52 98.53"/><polygon points="111.57 122.91 106.7 122.91 106.7 127.79 101.82 127.79 101.82 132.66 105.72 132.66 102.55 135.83 105.97 139.25 109.12 136.09 112.26 139.24 115.71 135.79 112.58 132.66 116.45 132.66 116.45 127.79 111.57 127.79 111.57 122.91"/><polygon points="36.73 23.63 40.17 27.08 43.32 23.94 46.47 27.09 49.89 23.68 46.72 20.51 50.62 20.51 50.62 15.63 45.74 15.63 45.74 10.75 40.87 10.75 40.87 15.63 35.99 15.63 35.99 20.51 39.85 20.51 36.73 23.63"/><polygon points="21.36 35.13 16.48 35.13 16.48 40.01 11.61 40.01 11.61 44.89 15.47 44.89 12.35 48.02 15.79 51.46 18.94 48.32 22.09 51.47 25.5 48.06 22.33 44.89 26.24 44.89 26.24 40.01 21.36 40.01 21.36 35.13"/><polygon points="15.75 79.75 12.58 76.58 16.48 76.58 16.48 71.71 11.61 71.71 11.61 66.83 6.73 66.83 6.73 71.71 1.85 71.71 1.85 76.58 5.72 76.58 2.59 79.71 6.04 83.16 9.19 80.02 12.34 83.17 15.75 79.75"/><polygon points="21.36 98.53 16.48 98.53 16.48 103.41 11.61 103.41 11.61 108.28 15.47 108.28 12.34 111.41 15.79 114.86 18.94 111.71 22.09 114.86 25.5 111.45 22.33 108.28 26.24 108.28 26.24 103.41 21.36 103.41 21.36 98.53"/><polygon points="43.3 122.91 38.43 122.91 38.43 127.79 33.55 127.79 33.55 132.66 37.41 132.66 34.29 135.79 37.74 139.24 40.88 136.09 44.03 139.25 47.45 135.83 44.28 132.66 48.18 132.66 48.18 127.79 43.3 127.79 43.3 122.91"/><path d="M75,44.89a9.78,9.78,0,0,0-9.75,9.75V66.83h19.5V54.64A9.78,9.78,0,0,0,75,44.89Z"/><path d="M75,30.26a43.89,43.89,0,1,0,43.89,43.89A43.89,43.89,0,0,0,75,30.26ZM94.51,96.09A4.9,4.9,0,0,1,89.63,101H60.37a4.9,4.9,0,0,1-4.88-4.88V71.71a4.9,4.9,0,0,1,4.88-4.88V54.64a14.63,14.63,0,1,1,29.26,0V66.83a4.9,4.9,0,0,1,4.88,4.88Z"/><path d="M75,76.58a4.88,4.88,0,0,0-2.44,9.1v8h4.88v-8A4.88,4.88,0,0,0,75,76.58Z"/></svg>