<svg style="fill: #343741" xmlns="http://www.w3.org/2000/svg" viewBox="0 0 150 150"><title>ico_nist</title><path d="M10.89,55.4A10.39,10.39,0,0,0,.5,65.79L.58,94.65H9.82l-.08-19.2V65.79a1.16,1.16,0,0,1,1-1.16h.11a1.16,1.16,0,0,1,.82.34L35.94,91.56a10.39,10.39,0,0,0,17.73-7.35V55.35H44.44V84.26a1.16,1.16,0,0,1-1.16,1.11,1.15,1.15,0,0,1-.81-.34L18.24,58.44A10.36,10.36,0,0,0,10.89,55.4Z"/><path d="M58.29,55.35V84.21A10.39,10.39,0,0,0,68.68,94.6h39.26a12.12,12.12,0,0,0,0-24.21v0H82.54a3,3,0,0,1,0-5.77H124.1v30h9.24v-30H149.5V55.35h-67v0a12.11,12.11,0,0,0,0,24.2h25.4a3,3,0,0,1,0,5.78H68.68a1.16,1.16,0,0,1-1.15-1.16V55.35Z"/></svg>