<svg style="fill: #343741" xmlns="http://www.w3.org/2000/svg" viewBox="0 0 150 150"><defs><style>.a{fill-rule:evenodd;}</style></defs><title>ico_docker</title><path class="a" d="M84.71,70.87H100V57.12H84.71V70.87Zm-18.06,0H81.93V57.12H66.65Zm-18.06,0H63.87V57.12H48.59V70.87Zm-18.06,0H45.82V57.12H30.53Zm-18.06,0H27.75V57.12H12.47Zm18.06-16.5H45.82V40.63H30.53Zm18.06,0H63.87V40.63H48.59V54.37Zm18.06,0H81.93V40.63H66.65Zm0-16.5H81.93V24.12H66.65Zm79.27,25c-3.34-2.21-11-3-16.91-1.92-.76-5.5-3.86-10.27-9.49-14.58l-3.24-2.14-2.17,3.21a24.76,24.76,0,0,0-3.7,15.34,19.38,19.38,0,0,0,2.86,8.41,23.56,23.56,0,0,1-11.2,2.45H1.57l-.2,1.14c-.94,5.52-.92,22.73,10.36,36,8.59,10.06,21.46,15.16,38.25,15.16,36.4,0,63.33-16.59,75.94-46.74,5,.1,15.64,0,21.12-10.34.15-.24.48-.86,1.44-2.82l.52-1.09Z"/></svg>