<svg xmlns="http://www.w3.org/2000/svg" xmlns:xlink="http://www.w3.org/1999/xlink" style="isolation:isolate" viewBox="0 0 250 250" width="250pt" height="250pt"><defs><clipPath id="_clipPath_C9uwRBeKhVwUVDkAknWWWNeCYtV7fAJB"><rect width="250" height="250"/></clipPath></defs><g clip-path="url(#_clipPath_C9uwRBeKhVwUVDkAknWWWNeCYtV7fAJB)"><path d=" M 0 196.467 L 0 196.467 L 0 196.467 Q 0 190.073 3.562 184.714 L 3.562 184.714 L 3.562 184.714 Q 7.125 179.355 17.173 172.23 L 17.173 172.23 L 17.173 172.23 Q 11.266 165.045 9.256 160.66 L 9.256 160.66 L 9.256 160.66 Q 7.247 156.275 7.247 151.952 L 7.247 151.952 L 7.247 151.952 Q 7.247 141.843 13.215 136.119 L 13.215 136.119 L 13.215 136.119 Q 19.182 130.394 29.413 130.394 L 29.413 130.394 L 29.413 130.394 Q 38.547 130.394 44.515 135.723 L 44.515 135.723 L 44.515 135.723 Q 50.483 141.051 50.483 149.151 L 50.483 149.151 L 50.483 149.151 Q 50.483 154.509 47.773 159.046 L 47.773 159.046 L 47.773 159.046 Q 45.063 163.583 38.304 168.577 L 38.304 168.577 L 31.788 173.387 L 51.518 196.954 L 51.518 196.954 Q 55.659 189.038 55.659 179.355 L 55.659 179.355 L 65.829 179.355 L 65.829 179.355 Q 65.829 194.884 58.339 205.114 L 58.339 205.114 L 71.005 220.278 L 57.486 220.278 L 51.579 213.275 L 51.579 213.275 Q 47.073 217.294 41.014 219.395 L 41.014 219.395 L 41.014 219.395 Q 34.955 221.496 28.682 221.496 L 28.682 221.496 L 28.682 221.496 Q 15.711 221.496 7.856 214.614 L 7.856 214.614 L 7.856 214.614 Q 0 207.733 0 196.467 Z  M 28.682 212.3 L 28.682 212.3 L 28.682 212.3 Q 37.634 212.3 45.063 205.48 L 45.063 205.48 L 23.445 179.599 L 21.436 181.06 L 21.436 181.06 Q 11.266 188.551 11.266 196.467 L 11.266 196.467 L 11.266 196.467 Q 11.266 203.653 15.924 207.977 L 15.924 207.977 L 15.924 207.977 Q 20.583 212.3 28.682 212.3 Z  M 18.513 151.586 L 18.513 151.586 L 18.513 151.586 Q 18.513 157.432 25.698 166.202 L 25.698 166.202 L 32.884 161.147 L 32.884 161.147 Q 37.025 158.224 38.547 155.575 L 38.547 155.575 L 38.547 155.575 Q 40.07 152.926 40.07 149.151 L 40.07 149.151 L 40.07 149.151 Q 40.07 145.071 37.025 142.361 L 37.025 142.361 L 37.025 142.361 Q 33.98 139.651 29.352 139.651 L 29.352 139.651 L 29.352 139.651 Q 24.359 139.651 21.436 143.03 L 21.436 143.03 L 21.436 143.03 Q 18.513 146.41 18.513 151.586 Z  M 135.129 192.143 L 146.882 192.143 L 146.882 192.143 Q 145.238 206.211 136.499 213.853 L 136.499 213.853 L 136.499 213.853 Q 127.761 221.496 113.267 221.496 L 113.267 221.496 L 113.267 221.496 Q 97.556 221.496 88.087 210.23 L 88.087 210.23 L 88.087 210.23 Q 78.617 198.964 78.617 180.086 L 78.617 180.086 L 78.617 171.56 L 78.617 171.56 Q 78.617 159.198 83.032 149.82 L 83.032 149.82 L 83.032 149.82 Q 87.447 140.442 95.547 135.418 L 95.547 135.418 L 95.547 135.418 Q 103.646 130.394 114.303 130.394 L 114.303 130.394 L 114.303 130.394 Q 128.431 130.394 136.956 138.281 L 136.956 138.281 L 136.956 138.281 Q 145.482 146.167 146.882 160.112 L 146.882 160.112 L 135.129 160.112 L 135.129 160.112 Q 133.607 149.516 128.522 144.766 L 128.522 144.766 L 128.522 144.766 Q 123.437 140.016 114.303 140.016 L 114.303 140.016 L 114.303 140.016 Q 103.098 140.016 96.734 148.298 L 96.734 148.298 L 96.734 148.298 Q 90.37 156.58 90.37 171.865 L 90.37 171.865 L 90.37 180.451 L 90.37 180.451 Q 90.37 194.884 96.399 203.409 L 96.399 203.409 L 96.399 203.409 Q 102.428 211.935 113.267 211.935 L 113.267 211.935 L 113.267 211.935 Q 123.011 211.935 128.218 207.52 L 128.218 207.52 L 128.218 207.52 Q 133.424 203.105 135.129 192.143 L 135.129 192.143 Z  M 216.791 220.278 L 185.369 179.051 L 174.529 190.317 L 174.529 220.278 L 162.837 220.278 L 162.837 131.612 L 174.529 131.612 L 174.529 175.458 L 213.929 131.612 L 228.057 131.612 L 193.164 170.769 L 230.798 220.278 L 216.791 220.278 Z  M 68.356 117.17 L 59.892 94.029 L 22.745 94.029 L 14.402 117.17 L 2.345 117.17 L 36.203 28.504 L 46.434 28.504 L 80.353 117.17 L 68.356 117.17 Z  M 41.318 42.937 L 26.277 84.407 L 56.421 84.407 L 41.318 42.937 Z  M 145.695 28.504 L 145.695 38.126 L 117.195 38.126 L 117.195 117.17 L 105.564 117.17 L 105.564 38.126 L 77.125 38.126 L 77.125 28.504 L 145.695 28.504 Z  M 221.085 28.504 L 221.085 38.126 L 192.585 38.126 L 192.585 117.17 L 180.954 117.17 L 180.954 38.126 L 152.515 38.126 L 152.515 28.504 L 221.085 28.504 Z " fill="rgb(198,64,28)"/><path d=" M 238.3 132.166 L 238.3 133.277 L 235.011 133.277 L 235.011 142.398 L 233.669 142.398 L 233.669 133.277 L 230.387 133.277 L 230.387 132.166 L 238.3 132.166 Z  M 239.818 132.166 L 241.56 132.166 L 244.905 140.515 L 248.25 132.166 L 250 132.166 L 250 142.398 L 248.651 142.398 L 248.651 138.414 L 248.777 134.113 L 245.418 142.398 L 244.385 142.398 L 241.033 134.134 L 241.167 138.414 L 241.167 142.398 L 239.818 142.398 L 239.818 132.166 Z " fill="rgb(198,64,28)"/></g></svg>