<?xml version="1.0" encoding="utf-8"?>
<!-- Generator: Adobe Illustrator 16.0.3, SVG Export Plug-In . SVG Version: 6.00 Build 0)  -->
<!DOCTYPE svg PUBLIC "-//W3C//DTD SVG 1.1//EN" "http://www.w3.org/Graphics/SVG/1.1/DTD/svg11.dtd">
<svg version="1.1" id="Layer_1" xmlns="http://www.w3.org/2000/svg" xmlns:xlink="http://www.w3.org/1999/xlink" x="0px" y="0px"
	 width="500px" height="500px" viewBox="0 0 500 500" enable-background="new 0 0 500 500" xml:space="preserve">
<g>
	<g>
		<path fill="#064780" d="M106.021,250.586c0-40.873,15.713-79.493,44.756-108.533c30.803-30.801,71.108-46.958,113.491-45.486
			c38.998,1.335,76.83,17.595,103.844,44.604c28.961,28.964,45.105,67.376,45.479,108.156
			c0.265,41.355-15.748,80.535-45.372,110.161c-59.821,59.823-157.428,59.546-217.593-0.609c-6.688-6.688-8.697-18.888,0.739-28.324
			l40.887-40.896c-9.273-16.454-22.387-59.572,11.927-93.896c34.506-34.497,84.296-27.425,110.637-1.082
			c14.851,14.853,23.111,34.314,23.245,54.809c0.263,21.005-8.32,41.059-23.867,56.604c-18.951,18.953-46.293,26.379-73.144,19.888
			c-6.794-1.649-10.964-8.494-9.327-15.298c1.646-6.795,8.49-10.975,15.29-9.322c18.468,4.464,36.427-0.344,49.271-13.184
			c10.62-10.626,16.449-24.158,16.449-38.165c0-0.111,0-0.234,0-0.35c-0.096-13.793-5.721-26.953-15.827-37.069
			c-17.729-17.727-51.38-22.352-74.817,1.089c-28.597,28.605-7.449,64.094-7.229,64.444c6.982,11.044,3.354,22.582-3.962,28.718
			l-38.133,38.141c44.74,40.554,123.349,50.781,177.541-3.408c24.504-24.502,37.954-56.728,37.954-90.855
			c0-0.392,0-0.775-0.005-1.17c-0.303-34.097-13.821-66.226-38.063-90.469c-22.516-22.514-54.153-36.072-86.792-37.198
			c-35.293-1.221-68.935,12.306-94.707,38.088c-39.483,39.473-39.426,86.124-35.895,110.409c1.555,10.67,4.956,22.056,9.842,32.896
			c2.873,6.378,0.027,13.88-6.354,16.753c-6.375,2.866-13.879,0.022-16.745-6.354c-5.923-13.146-9.886-26.491-11.808-39.636
			C106.592,266.17,106.021,258.343,106.021,250.586z"/>
	</g>
</g>
</svg>
