<svg xmlns="http://www.w3.org/2000/svg" width="256" height="255" preserveAspectRatio="xMidYMid" style=""><rect id="backgroundrect" width="100%" height="100%" x="0" y="0" fill="none" stroke="none"/><g class="currentLayer" style=""><title>Layer 1</title><path d="M255.215.258v63.736l-63.605 63.605v-63.87L255.215.259" fill="#00bfb3" id="svg_1" class="" fill-opacity="1"/><path d="M128.006.258v63.736l63.605 63.605v-63.87L128.006.259" id="svg_2" class="" fill-opacity="1" fill="#13a7df"/><path d="M255.346 254.804H191.61l-63.605-63.605h63.867l63.474 63.605" fill="#00bfb3" id="svg_3" class="" fill-opacity="1"/><path d="M255.346 127.595H191.61L128.005 191.2h63.867l63.474-63.605" id="svg_4" class="" fill="#13a7df" fill-opacity="1"/><path d="M.801 254.936V191.2l63.605-63.605v63.869L.801 254.936" fill="#00bfb3" id="svg_5" class="" fill-opacity="1"/><path d="M128.01 254.936V191.2l-63.605-63.605v63.869l63.604 63.473" id="svg_6" class="" fill-opacity="1" fill="#13a7df"/><path d="M.672.386h63.736l63.605 63.605H64.145L.672.386" fill="#00bfb3" id="svg_7" class="" fill-opacity="1"/><path d="M.672 127.594h63.736l63.605-63.605H64.145L.672 127.594" id="svg_8" class="" fill-opacity="1" fill="#13a7df"/></g></svg>