<svg xmlns="http://www.w3.org/2000/svg" version="1.1" width="524" height="391" xml:space="preserve" style=""><rect id="backgroundrect" width="100%" height="100%" x="0" y="0" fill="none" stroke="none" class="selected" style=""/><style type="text/css">
	.st0{fill:#0D6B71;}
	.st1{fill:#FFFFFF;}
</style><g class="currentLayer" style=""><title>Layer 1</title><path class="st0" d="M513.5 249.6l-391.3 123L8 62.3l410.8-23.1L513.5 249.6 513.5 249.6z" id="svg_1"/><path class="st1" d="M168.8 188c0-11.6-8.6-17.4-25.7-17.4h-6.2v35.7h5.7c8.5 0 15-1.5 19.5-4.4C166.5 198.9 168.8 194.3 168.8 188M217.6 187.4c0 7.9-1.7 14.8-5.3 20.8 -3.5 6-8.4 11-14.7 15 -6.3 4-13.9 7-22.8 9 -8.9 2-18.7 3-29.6 3h-8v40H86.5V141.8h59.6c22.3 0 39.8 3.8 52.5 11.3C211.3 160.7 217.6 172.1 217.6 187.4" id="svg_2"/><path class="st1" d="M343.3 275c-7.8 1.5-16.7 2.2-26.6 2.2 -14.1 0-26.6-1.6-37.7-4.8 -11-3.2-20.4-7.8-28-13.7 -7.7-5.9-13.5-13.1-17.5-21.6 -4-8.5-6-18-6-28.4 0-10.3 2.1-19.7 6.4-28.2 4.3-8.5 10.3-15.8 18-21.8 7.7-6 16.9-10.7 27.7-14 10.7-3.3 22.5-4.9 35.3-4.9 9.9 0 19.1 0.3 27.1 2 8.1 1.8 8.2 2 14.7 4.3l-0.1 35.8c-5-2.8-10.7-5.2-16.9-7.1 -6.2-1.9-12.9-2.8-20.1-2.8 -11.5 0-20.8 3.2-28 9.5 -7.2 6.3-10.8 15.3-10.8 27.1 0 6.1 1.1 11.4 3.4 15.9 2.3 4.6 5.3 8.4 9.1 11.4 3.8 3 8.3 5.3 13.4 6.8 5.1 1.6 10.6 2.3 16.6 2.3 6.1 0 12-0.6 17.9-1.9 5.8-1.3 12-3.2 18.6-5.6l0.1 33.4C351.8 273.2 351.1 273.5 343.3 275" id="svg_3"/><rect x="380.70001220703125" y="141.8000030517578" class="st1" width="51.099998474121094" height="133.3000030517578" id="svg_4"/><path class="st1" d="M437.3 100.1c0 9-3 16-8.9 21.1 -5.9 5.1-13.3 7.7-22.1 7.7 -8.7 0-16.1-2.5-22.1-7.7 -6-5.1-8.9-12.2-8.9-21.1 0-9.2 3-16.3 8.9-21.4 5.9-5.1 13.3-7.7 22.1-7.7 8.7 0 16.1 2.6 22.1 7.7C434.3 83.8 437.3 90.9 437.3 100.1" id="svg_5"/><path class="st0" d="M647.5 150.1c0 17.9-4.9 31.6-14.8 41.3s-23.7 14.5-41.5 14.5h-34.6V98.9h37.1c17.2 0 30.5 4.4 39.8 13.2S647.5 133.5 647.5 150.1zM617.4 151.1c0-9.8-1.9-17.1-5.8-21.8 -3.9-4.7-9.8-7.1-17.7-7.1h-8.4v60h6.4c8.8 0 15.2-2.6 19.3-7.7C615.4 169.4 617.4 161.6 617.4 151.1z" id="svg_6"/><path class="st0" d="M736.7 173.4c0 6.6-1.7 12.5-5.1 17.7 -3.4 5.2-8.2 9.2-14.6 12 -6.3 2.9-13.8 4.3-22.3 4.3 -7.1 0-13.1-0.5-17.9-1.5s-9.9-2.7-15.1-5.2v-25.8c5.5 2.8 11.3 5 17.2 6.6 6 1.6 11.4 2.4 16.4 2.4 4.3 0 7.4-0.7 9.4-2.2 2-1.5 3-3.4 3-5.7 0-1.5-0.4-2.7-1.2-3.8 -0.8-1.1-2.1-2.2-3.9-3.3 -1.8-1.1-6.5-3.4-14.2-6.9 -7-3.2-12.2-6.3-15.7-9.2 -3.5-3-6.1-6.4-7.8-10.3 -1.7-3.9-2.5-8.4-2.5-13.7 0-9.9 3.6-17.6 10.8-23.1 7.2-5.5 17-8.3 29.6-8.3 11.1 0 22.4 2.6 33.9 7.7l-8.9 22.3c-10-4.6-18.7-6.9-25.9-6.9 -3.8 0-6.5 0.7-8.2 2 -1.7 1.3-2.6 3-2.6 4.9 0 2.1 1.1 4 3.3 5.6 2.2 1.7 8.1 4.7 17.7 9.1 9.2 4.2 15.6 8.6 19.2 13.4C734.9 160.2 736.7 166.2 736.7 173.4z" id="svg_7"/><path class="st0" d="M823.2 173.4c0 6.6-1.7 12.5-5.1 17.7 -3.4 5.2-8.2 9.2-14.6 12 -6.3 2.9-13.8 4.3-22.3 4.3 -7.1 0-13.1-0.5-17.9-1.5s-9.9-2.7-15.1-5.2v-25.8c5.5 2.8 11.3 5 17.2 6.6 6 1.6 11.4 2.4 16.4 2.4 4.3 0 7.4-0.7 9.4-2.2 2-1.5 3-3.4 3-5.7 0-1.5-0.4-2.7-1.2-3.8 -0.8-1.1-2.1-2.2-3.9-3.3 -1.8-1.1-6.5-3.4-14.2-6.9 -7-3.2-12.2-6.3-15.7-9.2 -3.5-3-6.1-6.4-7.8-10.3 -1.7-3.9-2.5-8.4-2.5-13.7 0-9.9 3.6-17.6 10.8-23.1 7.2-5.5 17-8.3 29.6-8.3 11.1 0 22.4 2.6 33.9 7.7l-8.9 22.3c-10-4.6-18.7-6.9-25.9-6.9 -3.8 0-6.5 0.7-8.2 2 -1.7 1.3-2.6 3-2.6 4.9 0 2.1 1.1 4 3.3 5.6 2.2 1.7 8.1 4.7 17.7 9.1 9.2 4.2 15.6 8.6 19.2 13.4C821.5 160.2 823.2 166.2 823.2 173.4z" id="svg_8"/><path class="st0" d="M571.8 229.5c-2.6 0-4.6 1-6 2.9 -1.4 1.9-2.1 4.7-2.1 8.1 0 7.2 2.7 10.8 8.1 10.8 2.3 0 5-0.6 8.3-1.7v5.8c-2.7 1.1-5.6 1.7-8.9 1.7 -4.7 0-8.3-1.4-10.8-4.3 -2.5-2.9-3.7-7-3.7-12.3 0-3.4 0.6-6.3 1.8-8.9 1.2-2.5 3-4.5 5.3-5.8 2.3-1.4 5-2 8.1-2 3.2 0 6.3 0.8 9.5 2.3l-2.2 5.6c-1.2-0.6-2.4-1.1-3.7-1.5C574.2 229.7 573 229.5 571.8 229.5z" id="svg_9"/><path class="st0" d="M616.4 240.4c0 5.4-1.3 9.5-4 12.4 -2.7 2.9-6.5 4.3-11.4 4.3 -5 0-8.8-1.4-11.4-4.3 -2.7-2.9-4-7-4-12.4s1.3-9.5 4-12.4c2.7-2.8 6.5-4.3 11.5-4.3 5 0 8.8 1.4 11.4 4.3C615.1 230.9 616.4 235 616.4 240.4zM592.7 240.4c0 3.6 0.7 6.4 2.1 8.2 1.4 1.8 3.4 2.8 6.2 2.8 5.5 0 8.2-3.6 8.2-10.9 0-7.3-2.7-11-8.2-11 -2.7 0-4.8 0.9-6.2 2.8C593.4 234 592.7 236.8 592.7 240.4z" id="svg_10"/><path class="st0" d="M636.9 256.6l-7.8-25.4h-0.2c0.3 5.2 0.4 8.6 0.4 10.4v15.1h-6.1v-32.4h9.4l7.7 24.8h0.1l8.1-24.8h9.4v32.4h-6.4v-15.4c0-0.7 0-1.6 0-2.5 0-0.9 0.1-3.5 0.3-7.5h-0.2l-8.4 25.4H636.9z" id="svg_11"/><path class="st0" d="M688.4 234.3c0 3.5-1.1 6.2-3.3 8 -2.2 1.8-5.3 2.8-9.3 2.8h-3v11.5H666v-32.4h10.4c3.9 0 6.9 0.8 9 2.5C687.3 228.4 688.4 231 688.4 234.3zM672.8 239.5h2.3c2.1 0 3.7-0.4 4.7-1.3 1-0.8 1.6-2.1 1.6-3.6 0-1.6-0.4-2.8-1.3-3.6 -0.9-0.8-2.3-1.2-4.1-1.2h-3.1V239.5z" id="svg_12"/><path class="st0" d="M694.5 256.6v-32.4h6.9V251h13.2v5.7H694.5z" id="svg_13"/><path class="st0" d="M720.2 256.6v-32.4h6.9v32.4H720.2z" id="svg_14"/><path class="st0" d="M755.1 256.6l-2.4-7.7h-11.8l-2.4 7.7h-7.4l11.4-32.6h8.4l11.5 32.6H755.1zM751.1 243.1c-2.2-7-3.4-11-3.7-11.9 -0.3-0.9-0.5-1.6-0.6-2.2 -0.5 1.9-1.9 6.6-4.2 14H751.1z" id="svg_15"/><path class="st0" d="M795.3 256.6h-8.7l-14.1-24.5h-0.2c0.3 4.3 0.4 7.4 0.4 9.3v15.3h-6.1v-32.4h8.7l14.1 24.3h0.2c-0.2-4.2-0.3-7.2-0.3-8.9v-15.4h6.2V256.6z" id="svg_16"/><path class="st0" d="M816 256.6h-6.9v-26.7h-8.8v-5.7h24.5v5.7H816V256.6z" id="svg_17"/></g></svg>