<?xml version="1.0" encoding="UTF-8" standalone="no"?>
<svg width="42px" height="42px" viewBox="0 0 42 42" version="1.1" xmlns="http://www.w3.org/2000/svg" xmlns:xlink="http://www.w3.org/1999/xlink" xmlns:sketch="http://www.bohemiancoding.com/sketch/ns">
    <!-- Generator: Sketch 3.0.4 (8054) - http://www.bohemiancoding.com/sketch -->
    <title>SearchHead</title>
    <desc>Created with Sketch.</desc>
    <defs></defs>
    <g id="Page-1" stroke="none" stroke-width="1" fill="none" fill-rule="evenodd" sketch:type="MSPage">
        <path d="M8.95,13 C9.416,11.362 10.436,9.956 11.794,9 L18,9 L18,13 L8.95,13 L8.95,13 Z M23.046,17 C22.582,18.638 21.562,20.044 20.202,21 L12,21 L12,17 L23.046,17 L23.046,17 Z M8,15 C8,10.588 11.586,7 15.998,7 C20.41,7 24,10.588 24,15 C24,19.41 20.41,23 15.998,23 C11.586,23 8,19.41 8,15 L8,15 Z M35.41,31.586 L27.412,23.586 C26.89,23.062 26.154,22.898 25.488,23.074 L23.742,21.326 C25.148,19.602 26,17.4 26,15 C26,9.476 21.52,5 15.998,5 C10.476,5 6,9.476 6,15 C6,20.522 10.476,25 15.998,25 C18.398,25 20.604,24.152 22.326,22.74 L24.072,24.488 C23.898,25.154 24.062,25.89 24.582,26.414 L32.582,34.414 C32.976,34.804 33.488,35 33.998,35 C34.51,35 35.02,34.804 35.41,34.414 C36.192,33.632 36.192,32.366 35.41,31.586 L35.41,31.586 Z M30,11 L42,11 L42,13 L30,13 L30,11 Z M39.998,35 L41.998,35 L41.998,37 L39.998,37 L39.998,35 Z M36,17 L42,17 L42,19 L36,19 L36,17 Z M0,17 L2,17 L2,19 L0,19 L0,17 Z M32,19 L27.302,19 C27.532,18.356 27.702,17.686 27.822,17 L32,17 L32,19 L32,19 Z M29.656,23 L42,23 L42,25 L31.654,25 L29.656,23 L29.656,23 Z M9.38,25 L0,25 L0,23 L7.08,23 C7.76,23.756 8.53,24.434 9.38,25 L9.38,25 Z M35.656,29 L42,29 L42,31 L37.446,31 C37.274,30.706 37.078,30.422 36.826,30.17 L35.656,29 L35.656,29 Z M21.998,29 L24.342,29 L26.342,31 L21.998,31 L21.998,29 L21.998,29 Z M0,29 L18,29 L18,31 L0,31 L0,29 Z M12,35 L28,35 L28,37 L12,37 L12,35 Z M0,35 L8,35 L8,37 L0,37 L0,35 Z M4.174,13 L0,13 L0,11 L4.7,11 C4.47,11.642 4.294,12.312 4.174,13 L4.174,13 Z" id="SearchHead" fill="#1A1918" sketch:type="MSShapeGroup"></path>
    </g>
</svg>