<svg width="82" height="90" viewBox="0 0 82 90" fill="none" xmlns="http://www.w3.org/2000/svg">
<path d="M53.8413 66.1174L69.3531 61.9832" stroke="#4EB2D2" stroke-width="0.792923" stroke-miterlimit="10" stroke-linejoin="round"/>
<path d="M80.9598 70.5019L69.3525 61.9848L68.8916 38.7228L80.5001 47.2399L80.9598 70.5019Z" fill="#15161B" stroke="#4EB2D2" stroke-width="0.792923" stroke-miterlimit="10" stroke-linejoin="round"/>
<path d="M65.2 74.8176L53.8413 66.1181L53.3804 42.8561L64.9889 51.372L65.2 74.8176Z" fill="#111215" stroke="#4EB2D2" stroke-width="0.792923" stroke-miterlimit="10" stroke-linejoin="round"/>
<path d="M64.8879 51.2748L53.2095 42.8364L69.1159 38.5972L80.5008 47.2779L64.8879 51.2748Z" fill="#15161B" stroke="#4EB2D2" stroke-width="0.792923" stroke-miterlimit="10" stroke-linejoin="round"/>
<path d="M80.4615 47.2134L80.9998 70.5078L65.1995 74.817L64.9497 51.2727L80.4615 47.2134Z" fill="#15161B" stroke="#4EB2D2" stroke-width="0.792923" stroke-miterlimit="10" stroke-linejoin="round"/>
<path d="M47.9938 79.2874L36.3853 70.7702L51.897 66.6372L63.5055 75.1531L47.9938 79.2874Z" fill="#15161B" stroke="#A870EF" stroke-width="0.792923" stroke-miterlimit="10" stroke-linejoin="round"/>
<path d="M63.5053 75.1524L51.8968 66.6365L50.6016 1.21216L62.2101 9.72931L63.5053 75.1524Z" fill="#15161B" stroke="#FFC34E" stroke-width="0.792923" stroke-miterlimit="10" stroke-linejoin="round"/>
<path d="M46.6988 13.8636L35.0903 5.34646L50.6021 1.21216L62.2106 9.72931L46.6988 13.8636Z" fill="#15161B" stroke="#FFC34E" stroke-width="0.792923" stroke-miterlimit="10" stroke-linejoin="round"/>
<path d="M62.21 9.73096L63.5052 75.154L47.9935 79.2883L46.6982 13.8653L62.21 9.73096Z" fill="#15161B" stroke="#FFC34E" stroke-width="0.792923" stroke-miterlimit="10" stroke-linejoin="round"/>
<path d="M47.9941 79.2868L36.3856 70.7696L35.0903 5.34656L46.6988 13.8637L47.9941 79.2868Z" fill="#15161B" stroke="#FFC34E" stroke-width="0.792923" stroke-miterlimit="10" stroke-linejoin="round"/>
<path d="M47.8011 79.5005L36.1926 70.9833L34.8911 5.23926L46.4984 13.7564L47.8011 79.5005Z" fill="#15161B" stroke="#FFC34E" stroke-width="0.792923" stroke-miterlimit="10" stroke-linejoin="round"/>
<path d="M46.4984 13.7555L34.8911 5.23833L50.7963 1.00037L62.4048 9.51627L46.4984 13.7555Z" fill="#15161B" stroke="#FFC34E" stroke-width="0.792923" stroke-miterlimit="10" stroke-linejoin="round"/>
<path d="M46.499 13.7556L62.4055 9.51636L63.7082 75.2604L47.8018 79.4996L46.499 13.7556ZM63.5059 75.153L62.2094 9.72994L46.6976 13.8642L47.9941 79.2873L63.5059 75.153Z" fill="#15161B" stroke="#FFC34E" stroke-width="0.792923" stroke-miterlimit="10" stroke-linejoin="round"/>
<path d="M30.5392 83.9391L18.9307 75.422L34.4424 71.2889L46.0509 79.8061L30.5392 83.9391Z" fill="#15161B" stroke="url(#paint0_radial)" stroke-width="0.792923" stroke-miterlimit="10" stroke-linejoin="round"/>
<path d="M46.0502 79.8073L34.4417 71.2901L33.6099 29.2889L45.2184 37.8061L46.0502 79.8073Z" fill="#15161B" stroke="url(#paint1_radial)" stroke-width="0.792923" stroke-miterlimit="10" stroke-linejoin="round"/>
<path d="M29.7076 41.9391L18.0991 33.4232L33.6108 29.2889L45.2193 37.8061L29.7076 41.9391Z" fill="#15161B" stroke="url(#paint2_radial)" stroke-width="0.792923" stroke-miterlimit="10" stroke-linejoin="round"/>
<path d="M45.2192 37.8057L46.0511 79.8069L30.5394 83.9399L29.7075 41.9387L45.2192 37.8057Z" fill="#15161B" stroke="url(#paint3_radial)" stroke-width="0.792923" stroke-miterlimit="10" stroke-linejoin="round"/>
<path d="M30.5395 83.9395L18.931 75.4223L18.0991 33.4224L29.7076 41.9383L30.5395 83.9395Z" fill="#15161B" stroke="url(#paint4_radial)" stroke-width="0.792923" stroke-miterlimit="10" stroke-linejoin="round"/>
<path d="M30.3465 84.1521L18.738 75.6349L17.8999 33.314L29.5084 41.8311L30.3465 84.1521Z" fill="#15161B" stroke="#F494E5" stroke-width="0.792923" stroke-miterlimit="10" stroke-linejoin="round"/>
<path d="M29.5089 41.8307L17.9004 33.3136L33.8068 29.0743L45.4141 37.5915L29.5089 41.8307Z" fill="#15161B" stroke="#F494E5" stroke-width="0.792923" stroke-miterlimit="10" stroke-linejoin="round"/>
<path d="M29.5083 41.8303L45.4147 37.5911L46.2528 79.912L30.3464 84.1512L29.5083 41.8303ZM46.0505 79.8059L45.2186 37.8046L29.7069 41.9389L30.5388 83.9402L46.0505 79.8059Z" fill="#15161B" stroke="#F494E5" stroke-width="0.792923" stroke-miterlimit="10" stroke-linejoin="round"/>
<path d="M28.3228 70.5615L28.5976 84.4558L13.0858 88.5901L12.811 74.6946L28.3228 70.5615Z" fill="#15161B" stroke="#7EEFDA" stroke-width="0.792923" stroke-miterlimit="10" stroke-linejoin="round"/>
<path d="M12.8908 88.8005L1.28228 80.2846L1 66.0719L12.6085 74.5891L12.8908 88.8005Z" fill="#15161B" stroke="#7EEFDA" stroke-width="0.792923" stroke-miterlimit="10" stroke-linejoin="round"/>
<path d="M12.6085 74.5898L1 66.0727L16.9064 61.8347L28.5149 70.3506L12.6085 74.5898Z" fill="#15161B" stroke="#7EEFDA" stroke-width="0.792923" stroke-miterlimit="10" stroke-linejoin="round"/>
<path d="M12.6084 74.5893L28.5148 70.3501L28.7958 84.5616L12.8894 88.8008L12.6084 74.5893ZM28.5973 84.4542L28.3225 70.5599L12.8107 74.6942L13.0855 88.5885L28.5973 84.4542Z" fill="#15161B" stroke="#A9F5E7" stroke-width="0.792923" stroke-miterlimit="10" stroke-linejoin="round"/>
<defs>
<radialGradient id="paint0_radial" cx="0" cy="0" r="1" gradientUnits="userSpaceOnUse" gradientTransform="translate(32.4908 77.614) scale(10.9536)">
<stop stop-color="#A9F5E7"/>
<stop offset="0.1667" stop-color="#45D4BA"/>
<stop offset="0.3385" stop-color="#602CA1"/>
<stop offset="0.5625" stop-color="#A870EF"/>
<stop offset="0.6875" stop-color="#FB865C"/>
<stop offset="0.8438" stop-color="#FFC34E"/>
<stop offset="1" stop-color="#FCD9A3"/>
</radialGradient>
<radialGradient id="paint1_radial" cx="0" cy="0" r="1" gradientUnits="userSpaceOnUse" gradientTransform="translate(39.83 54.548) scale(18.7346)">
<stop stop-color="#A9F5E7"/>
<stop offset="0.1667" stop-color="#45D4BA"/>
<stop offset="0.3385" stop-color="#602CA1"/>
<stop offset="0.5625" stop-color="#A870EF"/>
<stop offset="0.6875" stop-color="#FB865C"/>
<stop offset="0.8438" stop-color="#FFC34E"/>
<stop offset="1" stop-color="#FCD9A3"/>
</radialGradient>
<radialGradient id="paint2_radial" cx="0" cy="0" r="1" gradientUnits="userSpaceOnUse" gradientTransform="translate(31.659 35.6144) scale(10.9536)">
<stop stop-color="#A9F5E7"/>
<stop offset="0.1667" stop-color="#45D4BA"/>
<stop offset="0.3385" stop-color="#602CA1"/>
<stop offset="0.5625" stop-color="#A870EF"/>
<stop offset="0.6875" stop-color="#FB865C"/>
<stop offset="0.8438" stop-color="#FFC34E"/>
<stop offset="1" stop-color="#FCD9A3"/>
</radialGradient>
<radialGradient id="paint3_radial" cx="0" cy="0" r="1" gradientUnits="userSpaceOnUse" gradientTransform="translate(37.8791 60.8727) scale(17.663)">
<stop stop-color="#A9F5E7"/>
<stop offset="0.1667" stop-color="#45D4BA"/>
<stop offset="0.3385" stop-color="#602CA1"/>
<stop offset="0.5625" stop-color="#A870EF"/>
<stop offset="0.6875" stop-color="#FB865C"/>
<stop offset="0.8438" stop-color="#FFC34E"/>
<stop offset="1" stop-color="#FCD9A3"/>
</radialGradient>
<radialGradient id="paint4_radial" cx="0" cy="0" r="1" gradientUnits="userSpaceOnUse" gradientTransform="translate(24.3192 58.6808) scale(18.7346)">
<stop stop-color="#A9F5E7"/>
<stop offset="0.1667" stop-color="#45D4BA"/>
<stop offset="0.3385" stop-color="#602CA1"/>
<stop offset="0.5625" stop-color="#A870EF"/>
<stop offset="0.6875" stop-color="#FB865C"/>
<stop offset="0.8438" stop-color="#FFC34E"/>
<stop offset="1" stop-color="#FCD9A3"/>
</radialGradient>
</defs>
</svg>
