<svg width="40.303738" height="44.000031" viewBox="0 0 10.663697 11.641675" version="1.1" id="svg8" xmlns="http://www.w3.org/2000/svg" xmlns:xlink= "http://www.w3.org/1999/xlink">
  <g id="layer2" transform="translate(-47.805736,-147.15347)">
    <path id="path874-3" d="m 55.670688,147.89073 -1.306598,2.74797 h -2.396404 l -1.431105,-2.74797 -0.99606,3.4906 -1.368118,1.56148 3.076068,2.82558 1.199668,2.76407 h 1.372514 l 1.133749,-2.71572 3.143452,-2.84903 -1.400345,-1.53658 z m -1.532176,7.37376 a 0.29295898,0.29295898 0 0 1 -0.118643,0.0997 0.38670583,0.38670583 0 0 1 -0.155278,0.0322 0.37791708,0.37791708 0 0 1 -0.146481,-0.0322 0.27831103,0.27831103 0 0 1 -0.114255,-0.0997 l -0.462875,-0.70016 -0.477523,0.70016 a 0.29295898,0.29295898 0 0 1 -0.114255,0.0997 0.38377626,0.38377626 0 0 1 -0.146481,0.0322 0.30907171,0.30907171 0 0 1 -0.273919,-0.13185 L 49.7573,153.05412 h 0.656229 l 2.003838,1.75776 0.401356,-0.62254 h 0.629862 l 0.439437,0.62546 2.030206,-1.83099 h 0.600566 z" class="a" style="fill:none;stroke:#000;stroke-width:0.4;stroke-miterlimit:4;stroke-dasharray:none;stroke-opacity:1"></path>
  </g>
</svg>
