<?xml version="1.0" encoding="utf-8"?>
<!-- Generator: Adobe Illustrator 21.0.0, SVG Export Plug-In . SVG Version: 6.00 Build 0)  -->
<svg version="1.1" id="Layer_1" xmlns="http://www.w3.org/2000/svg" xmlns:xlink="http://www.w3.org/1999/xlink" x="0px" y="0px"
	 viewBox="0 0 160.4 216" style="enable-background:new 0 0 160.4 216;" xml:space="preserve">
<style type="text/css">
	.st0{fill:#1A80B6;}
</style>
<path class="st0" d="M137.8,71.9L121.2,0l-21.1,55.8H61.3L38.2,0L22.1,70.9L0,102.6l49.8,57.3L69.1,216h22.1l18.3-55.1l50.8-57.8
	L137.8,71.9z M96.4,149.7c-0.5,0.9-1.1,1.6-1.9,2c-0.8,0.4-1.6,0.7-2.5,0.7c-0.9,0-1.7-0.2-2.5-0.7c-0.8-0.5-1.4-1.1-1.9-2
	l-7.5-14.2l-7.5,14.2c-0.5,0.9-1.1,1.6-1.9,2c-0.8,0.4-1.6,0.7-2.5,0.7c-2,0-3.4-0.9-4.4-2.7l-38.3-44.8h10.6l32.4,35.6l6.5-12.7
	h5.1h5.1l7,12.7l32.8-37.1h9.7L96.4,149.7z"/>
</svg>
