<?xml version="1.0" encoding="UTF-8"?>
<svg version="1.1" id="Layer_1" xmlns="http://www.w3.org/2000/svg" xmlns:xlink="http://www.w3.org/1999/xlink" x="0px" y="0px"
         viewBox="0 0 160.4 216" style="enable-background:new 0 0 160.4 216;" xml:space="preserve">
<style type="text/css">
        .st0{fill:#1A80B6;}
</style>
<path class="st0" 
d="M 121.07369,22.226687 100.0111,66.524184 H 61.380628 L 38.310977,22.226687 22.254301,78.495875 0.1999994,103.66707 49.786767,149.21605 69.125615,193.77331 H 91.250766 L 109.52704,149.99523 160.19999,104.06839 137.62621,79.298722 Z M 96.374704,141.0932 a 4.7225498,4.7225498 0 0 1 -1.912585,1.60573 6.2337654,6.2337654 0 0 1 -2.502962,0.51939 6.0920891,6.0920891 0 0 1 -2.361296,-0.51939 4.4864223,4.4864223 0 0 1 -1.8418,-1.60573 L 80.294448,129.80632 72.59669,141.0932 a 4.7225498,4.7225498 0 0 1 -1.8418,1.60573 6.1865398,6.1865398 0 0 1 -2.361264,0.51939 4.9822898,4.9822898 0 0 1 -4.415589,-2.1252 l -38.229041,-35.6316 h 10.578511 l 32.302242,28.3353 6.469881,-10.03544 h 10.15348 l 7.083857,10.08265 32.727263,-29.51592 h 9.68122 z"
/>
</svg>
