<?xml version="1.0" standalone="no"?>
<!DOCTYPE svg PUBLIC "-//W3C//DTD SVG 20010904//EN"
 "http://www.w3.org/TR/2001/REC-SVG-20010904/DTD/svg10.dtd">
<svg version="1.0" xmlns="http://www.w3.org/2000/svg"
 width="200.000000pt" height="200.000000pt" viewBox="0 0 200.000000 200.000000"
 preserveAspectRatio="xMidYMid meet">
<metadata>
Created by potrace 1.13, written by Peter Selinger 2001-2015
</metadata>
<g transform="translate(0.000000,200.000000) scale(0.100000,-0.100000)"
fill="#1A80B6" stroke="none">
<path d="M35 1958 c-3 -7 -4 -440 -3 -963 l3 -950 962 -3 963 -2 0 965 0 965
-960 0 c-759 0 -962 -3 -965 -12z m1905 -958 l0 -940 -940 0 -940 0 0 940 0
940 940 0 940 0 0 -940z"/>
<path d="M580 1487 l-65 -232 -92 -108 -93 -107 67 -63 c38 -35 132 -122 209
-195 l142 -131 78 -186 79 -185 94 2 93 3 75 181 75 181 212 194 213 194 -71
78 c-119 132 -116 126 -186 371 -35 124 -66 226 -69 226 -3 -1 -44 -82 -90
-181 l-84 -179 -166 2 -166 3 -91 178 c-50 97 -93 179 -95 181 -2 3 -33 -100
-69 -227z m712 -617 c-129 -127 -179 -170 -198 -170 -19 0 -32 13 -60 56 l-36
56 -20 -33 c-30 -51 -59 -79 -81 -79 -16 0 -346 298 -355 322 -2 4 16 8 41 8
42 0 50 -5 180 -120 l136 -121 27 41 c25 37 30 40 73 40 42 0 48 -4 74 -41
l29 -40 86 79 c48 44 110 100 137 125 44 41 55 46 95 46 l45 0 -173 -169z"/>
</g>
</svg>
