<svg width="305" height="72.67" xmlns="http://www.w3.org/2000/svg">
 <defs>
  <style>.a{fill:#00a9e5;}</style>
 </defs>
 <title>wazuh_blue_full copia</title>
 <g>
  <title>background</title>
  <rect fill="none" id="canvas_background" height="74.67" width="307" y="-1" x="-1"/>
 </g>
 <g>
  <title>Layer 1</title>
  <path fill="#C97A86" id="svg_1" d="m74.93,12.5l-19.63,37l-6.62,-13.29l-9.63,0l-7.29,13.29l-19.5,-37l-10.08,0l24.94,46.19a4.92,4.92 0 0 0 6.83,2a5,5 0 0 0 1.85,-2l7.5,-14.12l7.42,14.12a5.13,5.13 0 0 0 1.86,2a4.68,4.68 0 0 0 2.46,0.66a4.83,4.83 0 0 0 2.48,-0.66a5,5 0 0 0 1.9,-2l24.92,-46.19" class="a"/>
  <path id="svg_2" d="m105.47,12.5a3.83,3.83 0 0 0 -2.36,-0.73a4,4 0 0 0 -2.38,0.73a6.25,6.25 0 0 0 -1.73,2l-27.72,46.18l9.62,0l7.38,-12.48l28.91,0l7.62,12.48l10.19,0l-27.84,-46.18a6.57,6.57 0 0 0 -1.69,-2zm-13.36,29.2l10.68,-18.06l10.74,18l-21.42,0.06z" class="a"/>
  <path id="svg_3" d="m184.48,16.73a3.76,3.76 0 0 0 -1.48,-3.23a5.37,5.37 0 0 0 -3.26,-1l-41.74,0l0,8l32.8,0l-31.74,32a5,5 0 0 0 -1.71,3.54a3.77,3.77 0 0 0 1.42,3.19a5.28,5.28 0 0 0 3.31,1.08l42.2,0l0,-8.02l-33.28,0l31.74,-32a5,5 0 0 0 1.74,-3.56z" class="a"/>
  <path id="svg_4" d="m236.42,39.39a19.11,19.11 0 0 1 -0.91,6.24a9.25,9.25 0 0 1 -2.91,4.24a13,13 0 0 1 -5.4,2.42a45.77,45.77 0 0 1 -16.72,0a13,13 0 0 1 -5.4,-2.42a9.27,9.27 0 0 1 -2.92,-4.24a19.15,19.15 0 0 1 -0.89,-6.24l0,-26.89l-8.7,0l0,26.89a29,29 0 0 0 1.43,9.71a15.92,15.92 0 0 0 4.57,6.87a19.74,19.74 0 0 0 8.06,4a46.12,46.12 0 0 0 11.9,1.33a46.56,46.56 0 0 0 12,-1.33a19.82,19.82 0 0 0 8.05,-4a16,16 0 0 0 4.58,-6.87a29.26,29.26 0 0 0 1.46,-9.71l0,-26.89l-8.22,0l0.02,26.89z" class="a"/>
  <polygon id="svg_5" points="291.05999755859375,12.47000028192997 291.05999755859375,32.419998183846474 260.69000244140625,32.419998183846474 260.69000244140625,12.47000028192997 252.260009765625,12.47000028192997 252.260009765625,60.87999726831913 260.69000244140625,60.87999726831913 260.69000244140625,39.919998183846474 291.05999755859375,39.919998183846474 291.05999755859375,60.87999726831913 299.4800109863281,60.87999726831913 299.4800109863281,12.47000028192997 291.05999755859375,12.47000028192997 " class="a"/>
 </g>
</svg>