<svg xmlns="http://www.w3.org/2000/svg" width="69.06103515625" height="74.30986022949219" style=""><rect id="backgroundrect" width="100%" height="100%" x="0" y="0" fill="none" stroke="none" class="" style=""/><defs><filter id="f009" xmlns:inkscape="http://www.inkscape.org/namespaces/inkscape" inkscape:label="Roughen" inkscape:menu="ABCs" inkscape:menu-tooltip="Small-scale roughening to edges and content" color-interpolation-filters="sRGB">
            <feTurbulence numOctaves="3" seed="0" type="turbulence" baseFrequency=".04" result="result91"/>
            <feDisplacementMap scale="6.6" yChannelSelector="G" xChannelSelector="R" in="SourceGraphic" in2="result91"/>
        </filter></defs><title>wazuh_blue_full copia</title><g class="currentLayer" style=""><title>Layer 1</title><path class="a" d="M52.462196536083965,1.5023475289344799 L43.59163897516325,19.995637369155887 H27.32232039930419 L17.606474281569277,1.5023475289344799 L10.844165827055729,24.993557384610174 L1.5559362733562334,35.502004596591 l20.883599638938904,19.015754851698876 l8.144603859186171,18.601725974678995 H39.90220303895072 l7.6970981526374835,-18.27641757130623 L68.94035110833242,35.66958771348 L59.433340986986906,25.328723618388178 zM42.06017500164107,51.126665788888936 a1.9889142513275146,1.9715660810470519 0 0 1 -0.8055102717876407,0.6703324675560006 a2.6253668117523197,2.602467226982117 0 0 1 -1.0541245532035828,0.21687226891517639 a2.5656993842124938,2.543320244550705 0 0 1 -0.9944571256637558,-0.21687226891517639 a1.8894685387611387,1.8729877769947052 0 0 1 -0.7756765580177305,-0.6703324675560006 l-3.1424845170974733,-4.7120429337024685 L32.04599174620704,51.126665788888936 a1.9889142513275146,1.9715660810470519 0 0 1 -0.7756765580177305,0.6703324675560006 a2.6054776692390442,2.582751566171646 0 0 1 -0.9944571256637558,0.21687226891517639 a2.0983045351505276,2.080002215504646 0 0 1 -1.8596348249912262,-0.8872047364711797 L12.315962373038086,36.25119970738888 h4.455167922973633 l13.6041734790802,11.829396486282349 L33.10011629941062,43.89101827144623 h4.276165640354156 l2.983371376991272,4.2092935830354685 l13.783175761699676,-12.322288006544113 h4.077274215221404 z" id="svg_6" fill="#ffffff" fill-opacity="1" stroke="none" filter=""/></g></svg>