<svg xmlns="http://www.w3.org/2000/svg" viewBox="0 0 368.15 72.67"><defs><style>.a{fill:#fff;}</style></defs><title>wazuh_white_full</title><path class="a" d="M142.74,16,123.11,53.06l-6.62-13.29h-9.63L99.57,53.06,80.07,16H70L94.93,62.21a4.92,4.92,0,0,0,6.83,2,5,5,0,0,0,1.85-2l7.5-14.12,7.42,14.12a5.13,5.13,0,0,0,1.86,2,4.67,4.67,0,0,0,2.45.66,4.84,4.84,0,0,0,2.49-.66,5,5,0,0,0,1.89-2L152.15,16Z"/><path class="a" d="M173.27,16.06a3.73,3.73,0,0,0-2.35-.74,3.9,3.9,0,0,0-2.38.74,6,6,0,0,0-1.72,2L139.09,64.2h9.62l7.38-12.48H185l7.61,12.48h10.15L175,18A6.15,6.15,0,0,0,173.27,16.06ZM159.92,45.25l10.67-18,10.75,18Z"/><path class="a" d="M252.28,20.26a3.73,3.73,0,0,0-1.45-3.19A5.28,5.28,0,0,0,247.54,16H205.76v7.94h32.85l-31.74,32a5,5,0,0,0-1.71,3.54,3.75,3.75,0,0,0,1.42,3.19,5.27,5.27,0,0,0,3.31,1.09h42.19V55.81H218.83l31.74-32A5.06,5.06,0,0,0,252.28,20.26Z"/><path class="a" d="M304.22,42.91a19.09,19.09,0,0,1-.9,6.24,9.22,9.22,0,0,1-2.92,4.24A12.81,12.81,0,0,1,295,55.81a45.77,45.77,0,0,1-16.72,0,13,13,0,0,1-5.41-2.42A9.28,9.28,0,0,1,270,49.15a19.1,19.1,0,0,1-.89-6.24V16h-8.7V42.91a29.37,29.37,0,0,0,1.46,9.72,15.93,15.93,0,0,0,4.58,6.86,19.87,19.87,0,0,0,8.06,4,46.6,46.6,0,0,0,11.9,1.32,47,47,0,0,0,12-1.32,20,20,0,0,0,8.05-4A15.93,15.93,0,0,0,311,52.63a29.37,29.37,0,0,0,1.46-9.72V16h-8.23Z"/><polygon class="a" points="358.87 15.99 358.87 35.95 328.49 35.95 328.49 15.99 320.07 15.99 320.07 64.4 328.49 64.4 328.49 43.44 358.87 43.44 358.87 64.4 367.29 64.4 367.29 15.99 358.87 15.99"/><path class="a" d="M50.34,0,41.42,18.78H25.06L15.29,0,8.49,23.85-.85,34.51l21,19.29,8.19,18.87h9.35l7.73-18.54L66.91,34.69l-9.57-10.5ZM39.87,50.37a2,2,0,0,1-.8.67,2.68,2.68,0,0,1-1.06.22A2.58,2.58,0,0,1,37,51a2,2,0,0,1-.78-.67L33,45.58l-3.18,4.79a2,2,0,0,1-.79.67,2.55,2.55,0,0,1-1,.22,2.12,2.12,0,0,1-1.86-.89L10,35.28h4.49l13.68,12L30.87,43h4.3l3,4.26L52,34.76h4.1Z"/></svg>