<?xml version="1.0" encoding="UTF-8" standalone="no"?>
<svg width="42px" height="42px" viewBox="0 0 42 42" version="1.1" xmlns="http://www.w3.org/2000/svg" xmlns:xlink="http://www.w3.org/1999/xlink" xmlns:sketch="http://www.bohemiancoding.com/sketch/ns">
    <!-- Generator: Sketch 3.0.4 (8054) - http://www.bohemiancoding.com/sketch -->
    <title>Alert</title>
    <desc>Created with Sketch.</desc>
    <defs></defs>
    <g id="Page-1" stroke="none" stroke-width="1" fill="none" fill-rule="evenodd" sketch:type="MSPage">
        <g id="Alert" sketch:type="MSLayerGroup" transform="translate(2.000000, 1.000000)" stroke="#333333">
            <path d="M18,37.6021798 C24.0567208,37.6021798 29.5107829,36.289782 32.5240768,34.203406 C34.0005908,33.160218 34.7539143,32.0497275 34.7539143,30.8046322 C34.7539143,28.3480926 31.5598227,26.1271117 26.4070901,24.9156676 C23.8457903,24.3099455 21.0434269,24.0070845 18,24.0070845 C11.9432792,24.0070845 6.48921713,25.2858311 3.50605613,27.3722071 C1.99940916,28.4153951 1.24608567,29.5595368 1.24608567,30.8046322 C1.24608567,33.2611717 4.44017725,35.4821526 9.5929099,36.6935967 C12.1542097,37.2993188 14.9565731,37.6021798 18,37.6021798 Z" id="Path" sketch:type="MSShapeGroup"></path>
            <path d="M7.19497784,25.5632078 C7.96602659,27.1353557 10.1728213,28.1179481 12.9113737,27.995124 C16.394387,27.9214296 18.9468242,26.3492817 18.9734121,24.1138839 L19,24.0647543" id="Path" sketch:type="MSShapeGroup"></path>
            <path d="M21.8818316,1.91553134 L21.8818316,3.77929155 C26.2688331,4.89237057 29.0871492,7.81743869 29.6454948,11.5190736 L31.5864106,21.8991826 C31.8257016,23.2452316 32.4106352,24.3841962 33.2880355,25.3419619 C35.0960118,27.2833787 36,28.9141689 36,30.2343324 C36,33.0558583 32.5701625,35.5926431 27.0398818,36.9645777 C24.2747415,37.6634877 21.2703102,38 18,38 C11.4859675,38 5.61004431,36.5245232 2.41949778,34.1430518 C0.797636632,32.9523161 0,31.6580381 0,30.2343324 C0,28.9400545 0.903988183,27.3092643 2.73855244,25.3419619 C3.40324963,24.6171662 3.66912851,24.3324251 4.01477105,23.5299728 C4.20088626,23.1416894 4.3338257,22.6757493 4.41358936,22.1580381 L6.35450517,11.5190736 C6.91285081,7.81743869 9.73116691,4.89237057 14.1181684,3.77929155 L14.1181684,1.91553134 C14.1181684,0.802452316 14.9423929,0 16.0856721,0 L19.9143279,0 C21.0576071,0 21.8818316,0.802452316 21.8818316,1.91553134 L21.8818316,1.91553134 Z" id="Path" stroke-width="2" sketch:type="MSShapeGroup"></path>
        </g>
    </g>
</svg>