<?xml version="1.0" encoding="UTF-8" standalone="no"?>
<svg width="42px" height="42px" viewBox="0 0 42 42" version="1.1" xmlns="http://www.w3.org/2000/svg" xmlns:xlink="http://www.w3.org/1999/xlink" xmlns:sketch="http://www.bohemiancoding.com/sketch/ns">
    <!-- Generator: Sketch 3.0.4 (8054) - http://www.bohemiancoding.com/sketch -->
    <title>ClusterMaster</title>
    <desc>Created with Sketch.</desc>
    <defs></defs>
    <g id="Page-1" stroke="none" stroke-width="1" fill="none" fill-rule="evenodd" sketch:type="MSPage">
        <path d="M9,21.332 C7.712,21.332 6.666,20.288 6.666,19 C6.666,17.714 7.712,16.668 9,16.668 C10.286,16.668 11.332,17.714 11.332,19 C11.332,20.288 10.286,21.332 9,21.332 L9,21.332 Z M12,19 C12,17.694 11.162,16.596 10,16.186 L10,5.002 C10,4.446 9.552,4 9,4 C8.446,4 8,4.446 8,5.002 L8,16.186 C6.836,16.596 6,17.694 6,19 C6,20.306 6.836,21.404 8,21.818 L8,37.002 C8,37.552 8.446,38.002 9,38.002 C9.552,38.002 10,37.552 10,37.002 L10,21.818 C11.162,21.404 12,20.306 12,19 L12,19 Z M21,29.332 C19.712,29.332 18.666,28.288 18.666,27 C18.666,25.714 19.712,24.668 21,24.668 C22.286,24.668 23.332,25.714 23.332,27 C23.332,28.288 22.286,29.332 21,29.332 L21,29.332 Z M24,27 C24,25.694 23.162,24.598 22,24.186 L22,5.002 C22,4.446 21.55,4 21,4 C20.446,4 20,4.446 20,5.002 L20,24.186 C18.836,24.598 18,25.694 18,27 C18,28.306 18.836,29.404 20,29.818 L20,37.002 C20,37.552 20.446,38.002 21,38.002 C21.55,38.002 22,37.552 22,37.002 L22,29.818 C23.162,29.404 24,28.306 24,27 L24,27 Z M33,15.332 C31.712,15.332 30.666,14.288 30.666,13 C30.666,11.714 31.712,10.668 33,10.668 C34.286,10.668 35.332,11.714 35.332,13 C35.332,14.288 34.286,15.332 33,15.332 L33,15.332 Z M36,13 C36,11.694 35.162,10.596 34,10.186 L34,5.002 C34,4.446 33.55,4 33,4 C32.446,4 32,4.446 32,5.002 L32,10.186 C30.836,10.596 30,11.694 30,13 C30,14.306 30.836,15.404 32,15.818 L32,37.002 C32,37.552 32.446,38.002 33,38.002 C33.55,38.002 34,37.552 34,37.002 L34,15.818 C35.162,15.404 36,14.306 36,13 L36,13 Z" id="ClusterMaster" fill="#1A1918" sketch:type="MSShapeGroup"></path>
    </g>
</svg>