<?xml version="1.0" encoding="UTF-8" standalone="no"?>
<svg width="42px" height="42px" viewBox="0 0 42 42" version="1.1" xmlns="http://www.w3.org/2000/svg" xmlns:xlink="http://www.w3.org/1999/xlink" xmlns:sketch="http://www.bohemiancoding.com/sketch/ns">
    <!-- Generator: Sketch 3.0.4 (8054) - http://www.bohemiancoding.com/sketch -->
    <title>Indexer</title>
    <desc>Created with Sketch.</desc>
    <defs></defs>
    <g id="Page-1" stroke="none" stroke-width="1" fill="none" fill-rule="evenodd" sketch:type="MSPage">
        <path d="M22,28 L32,28 L32,30 L22,30 L22,28 Z M18,28 L20,28 L20,30 L18,30 L18,28 Z M10,28 L16,28 L16,30 L10,30 L10,28 Z M26,20 L32,20 L32,22 L26,22 L26,20 Z M10,20 L24,20 L24,22 L10,22 L10,20 Z M35.428,33.442 L21.974,37.646 C21.498,37.794 20.5,37.794 20.026,37.646 L6.572,33.442 C6.29,33.354 6,32.96 6,32.666 L6,25.332 L36,25.332 L36,32.666 C36,32.96 35.712,33.354 35.428,33.442 L35.428,33.442 Z M6,17.332 L36,17.332 L36,24.666 L6,24.666 L6,17.332 Z M6.572,8.556 L20.026,4.352 C20.262,4.278 20.626,4.232 21,4.232 C21.374,4.232 21.738,4.278 21.974,4.352 L35.428,8.556 C35.712,8.644 36,9.038 36,9.332 L36,16.666 L6,16.666 L6,9.332 C6,9.038 6.29,8.644 6.572,8.556 L6.572,8.556 Z M36.026,6.646 L22.572,2.444 C21.706,2.172 20.294,2.172 19.428,2.444 L5.974,6.646 C4.85,6.998 4,8.152 4,9.332 L4,32.666 C4,33.846 4.85,35 5.974,35.352 L19.428,39.556 C19.862,39.69 20.42,39.766 21,39.766 C21.58,39.766 22.138,39.69 22.572,39.556 L36.026,35.352 C37.152,35 38,33.846 38,32.666 L38,9.332 C38,8.152 37.152,6.998 36.026,6.646 L36.026,6.646 Z M24,12 L32,12 L32,14 L24,14 L24,12 Z M16,12 L22,12 L22,14 L16,14 L16,12 Z M10,12 L14,12 L14,14 L10,14 L10,12 Z" id="Indexer" fill="#1A1918" sketch:type="MSShapeGroup"></path>
    </g>
</svg>