<svg width="24" height="28" viewBox="0 0 24 28" fill="none" xmlns="http://www.w3.org/2000/svg">
<path d="M22.8826 22.4415C22.0745 22.1068 21.7288 21.6627 21.7622 21C21.7966 20.2265 21.3627 19.6599 21.1566 19.4361C21.2811 18.9551 21.6449 17.2913 21.1569 15.8462C20.6325 14.2994 19.0315 11.9369 17.3795 9.61463C16.7032 8.66094 16.6713 7.62429 16.6343 6.42392C16.5989 5.279 16.559 3.98123 15.9276 2.53855C15.2411 0.967679 13.8636 0.0668945 12.1481 0.0668945C11.1276 0.0668945 10.08 0.389419 9.2739 0.95169C7.62318 2.10373 7.84138 4.6155 7.98576 6.27755C8.00555 6.50514 8.02416 6.72013 8.035 6.90368C8.13114 8.53147 8.04368 9.38941 7.92929 9.65017C7.85529 9.82057 7.491 10.3055 7.10547 10.819C6.70674 11.35 6.25472 11.952 5.88418 12.5129C5.44209 13.1878 5.08521 14.2194 4.74006 15.2171C4.48753 15.9471 4.249 16.6366 4.0168 17.0487C3.5767 17.8414 3.6862 18.5805 3.77764 18.9222C3.61103 19.0392 3.37033 19.2696 3.16713 19.704C2.92156 20.2339 2.42327 20.5187 1.38712 20.7202C0.910963 20.8187 0.582625 21.0211 0.410957 21.3219C0.161135 21.7596 0.297205 22.3097 0.421348 22.6855C0.604761 23.2381 0.490466 23.5879 0.282658 24.2229C0.234772 24.3694 0.18047 24.5354 0.125446 24.7184C0.038799 25.0072 0.0700607 25.2698 0.218147 25.4988C0.60946 26.1038 1.75132 26.3171 2.9268 26.4574C3.62865 26.5417 4.39682 26.8256 5.13978 27.1002C5.86774 27.3692 6.62046 27.6474 7.30469 27.7318C7.40869 27.7451 7.51169 27.7517 7.61098 27.7517C8.64406 27.7517 9.11082 27.0585 9.25881 26.7738C9.62989 26.6972 10.9097 26.452 12.2288 26.4191C13.5457 26.3811 14.82 26.644 15.1809 26.7258C15.2944 26.9454 15.5935 27.4471 16.0704 27.7056C16.3325 27.8505 16.6973 27.9336 17.0709 27.9336C17.071 27.9336 17.0709 27.9336 17.071 27.9336C17.47 27.9336 18.229 27.8382 18.8298 27.1991C19.429 26.5569 20.9261 25.7372 22.0193 25.1387C22.2633 25.0051 22.4915 24.8801 22.6917 24.7672C23.3058 24.423 23.6409 23.9311 23.611 23.4177C23.586 22.9913 23.3069 22.6172 22.8826 22.4415ZM9.28737 22.3179C9.21093 21.7733 8.5182 21.2333 7.71597 20.608C7.06002 20.0966 6.31652 19.517 6.11169 19.0262C5.68839 18.0137 6.02206 16.2333 6.60383 15.3165C6.89133 14.8575 7.12616 14.1614 7.3533 13.4882C7.59851 12.7613 7.85213 12.0097 8.13575 11.6807C8.58488 11.167 8.99996 10.1676 9.0735 9.3799C9.49409 9.78594 10.1465 10.3012 10.7493 10.3012C10.842 10.3012 10.9321 10.2889 11.0182 10.2643C11.4306 10.1439 12.0371 9.7895 12.6237 9.44688C13.1294 9.1514 13.753 8.78703 13.9876 8.75386C14.39 9.33806 16.7278 14.5698 16.9667 16.25C17.1557 17.5793 16.956 18.6783 16.8557 19.1087C16.7749 19.0976 16.6786 19.0885 16.5774 19.0885C15.9262 19.0885 15.7538 19.448 15.7089 19.6626C15.5935 20.2202 15.5813 22.0032 15.58 22.4039C15.3445 22.7064 14.1538 24.131 12.4442 24.3871C11.7479 24.4894 11.0976 24.5413 10.5116 24.5413C10.0107 24.5413 9.69106 24.5022 9.55833 24.4818L8.69927 23.4878C9.038 23.3187 9.37663 22.9618 9.28737 22.3179ZM10.3775 5.92798C10.3506 5.93967 10.3242 5.95219 10.2983 5.96553C10.2957 5.90669 10.2896 5.84703 10.2803 5.78718C10.1865 5.24127 9.82857 4.84501 9.42931 4.84501C9.39976 4.84501 9.37004 4.84729 9.33742 4.85232C9.09989 4.89234 8.91358 5.07279 8.81148 5.32861C8.90102 4.76726 9.21554 4.35163 9.58869 4.35163C10.0269 4.35163 10.3971 4.9488 10.3971 5.65561C10.3971 5.7447 10.3906 5.83332 10.3775 5.92798ZM13.7824 6.3489C13.8226 6.21971 13.8442 6.07992 13.8442 5.93483C13.8442 5.29398 13.4422 4.79192 12.9289 4.79192C12.4273 4.79192 12.0191 5.30458 12.0191 5.93483C12.0191 5.97777 12.0212 6.02081 12.0252 6.06375C11.9986 6.05343 11.9727 6.04337 11.9474 6.03369C11.8897 5.85689 11.8605 5.67243 11.8605 5.48412C11.8605 4.71783 12.3448 4.09434 12.9402 4.09434C13.5355 4.09434 14.0199 4.71783 14.0199 5.48412C14.0199 5.8029 13.9329 6.10715 13.7824 6.3489ZM13.3434 7.84038C13.3348 7.87912 13.3166 7.89629 13.1147 8.00246C13.0128 8.05609 12.886 8.12288 12.7272 8.22064L12.6212 8.28561C12.1949 8.54691 11.1968 9.15898 10.9258 9.19489C10.7418 9.21992 10.6279 9.14774 10.3719 8.97186C10.3142 8.93212 10.2528 8.8899 10.1873 8.84742C9.72584 8.54125 9.42904 8.20401 9.39552 8.07217C9.54595 7.95458 9.91883 7.66029 10.1097 7.48606C10.4973 7.12169 10.8872 6.87682 11.0802 6.87682C11.0904 6.87682 11.0996 6.87755 11.1092 6.87938C11.336 6.91986 11.8954 7.14562 12.3039 7.31045C12.4928 7.38665 12.6559 7.45243 12.7706 7.4941C13.1321 7.61963 13.3206 7.78026 13.3434 7.84038ZM16.5913 24.8684C16.7952 23.9382 17.0301 22.6728 16.9921 21.9267C16.9833 21.7573 16.9685 21.5728 16.9541 21.3944C16.9273 21.061 16.8875 20.5653 16.9286 20.4183C16.9367 20.4144 16.9457 20.4112 16.9558 20.4083C16.9575 20.8348 17.0491 21.6855 17.7219 21.9822C17.9224 22.0707 18.1515 22.1154 18.4028 22.1154C19.0768 22.1154 19.8245 21.7811 20.1308 21.4714C20.3112 21.289 20.4629 21.0659 20.5691 20.8892C20.5923 20.958 20.6066 21.0479 20.5991 21.1637C20.5591 21.7928 20.8614 22.6273 21.4368 22.9349L21.5205 22.9794C21.7254 23.0881 22.2697 23.3771 22.2785 23.5142C22.2784 23.5142 22.2739 23.5303 22.2435 23.5588C22.1072 23.6848 21.6273 23.9326 21.1633 24.1723C20.3401 24.5973 19.407 25.0791 18.988 25.5248C18.398 26.1526 17.7306 26.5744 17.3277 26.5744C17.2791 26.5744 17.235 26.5682 17.1957 26.5556C16.758 26.4176 16.3978 25.779 16.5913 24.8684ZM1.67326 22.4953C1.62863 22.2841 1.59339 22.1173 1.63125 21.9558C1.65871 21.8361 2.24302 21.7078 2.49257 21.6531C2.8434 21.5761 3.20625 21.4965 3.44352 21.3509C3.76436 21.1543 3.9381 20.7919 4.09134 20.4721C4.20229 20.2408 4.31685 20.0017 4.4532 19.9233C4.46088 19.9187 4.47262 19.9134 4.49503 19.9134C4.75045 19.9134 5.28642 20.4564 5.59524 20.9424C5.67357 21.0649 5.81868 21.3104 5.98655 21.5946C6.48864 22.4442 7.17612 23.6077 7.53518 23.9977C7.85873 24.3482 8.38249 25.0223 8.25365 25.6003C8.15933 26.0488 7.65715 26.4136 7.5387 26.4943C7.49569 26.5041 7.44248 26.5092 7.37986 26.5092C6.69265 26.5092 5.33232 25.931 4.60146 25.6203L4.49331 25.5744C4.08519 25.4013 3.41894 25.2923 2.77464 25.1869C2.26199 25.1029 1.55996 24.9881 1.44359 24.8843C1.34926 24.7773 1.45867 24.4295 1.55517 24.1226C1.62465 23.902 1.69639 23.674 1.73569 23.4352C1.79144 23.0544 1.72584 22.7444 1.67326 22.4953Z" fill="#343741"/>
</svg>
